<svg width="1292" height="92" viewBox="0 0 1292 92" fill="none" xmlns="http://www.w3.org/2000/svg">
<path d="M302.939 24.81C304.252 24.81 305.316 23.746 305.316 22.4333C305.316 21.1207 304.252 20.0566 302.939 20.0566C301.627 20.0566 300.562 21.1207 300.562 22.4333C300.562 23.746 301.627 24.81 302.939 24.81Z" fill="#EAF0F6"/>
<path d="M282.763 24.81C284.076 24.81 285.14 23.746 285.14 22.4333C285.14 21.1207 284.076 20.0566 282.763 20.0566C281.451 20.0566 280.387 21.1207 280.387 22.4333C280.387 23.746 281.451 24.81 282.763 24.81Z" fill="#EAF0F6"/>
<path d="M260.264 22.4333C260.264 23.7537 261.32 24.81 262.641 24.81C263.961 24.81 265.017 23.7537 265.017 22.4333C265.017 21.113 263.961 20.0566 262.641 20.0566C261.32 20.0566 260.264 21.113 260.264 22.4333Z" fill="#EAF0F6"/>
<path d="M240.141 22.4333C240.141 23.7537 241.197 24.81 242.518 24.81C243.838 24.81 244.895 23.7537 244.895 22.4333C244.895 21.113 243.838 20.0566 242.518 20.0566C241.197 20.0566 240.141 21.113 240.141 22.4333Z" fill="#EAF0F6"/>
<path d="M222.343 24.81C223.655 24.81 224.719 23.746 224.719 22.4333C224.719 21.1207 223.655 20.0566 222.343 20.0566C221.03 20.0566 219.966 21.1207 219.966 22.4333C219.966 23.746 221.03 24.81 222.343 24.81Z" fill="#EAF0F6"/>
<path d="M199.843 22.4333C199.843 23.7537 200.9 24.81 202.22 24.81C203.54 24.81 204.597 23.7537 204.597 22.4333C204.597 21.113 203.488 20.0566 202.167 20.0566C200.847 20.0566 199.843 21.113 199.843 22.4333Z" fill="#EAF0F6"/>
<path d="M182.044 24.81C183.357 24.81 184.421 23.746 184.421 22.4333C184.421 21.1207 183.357 20.0566 182.044 20.0566C180.732 20.0566 179.667 21.1207 179.667 22.4333C179.667 23.746 180.732 24.81 182.044 24.81Z" fill="#EAF0F6"/>
<path d="M302.939 46.4645C304.252 46.4645 305.316 45.4004 305.316 44.0878C305.316 42.7751 304.252 41.7111 302.939 41.7111C301.627 41.7111 300.562 42.7751 300.562 44.0878C300.562 45.4004 301.627 46.4645 302.939 46.4645Z" fill="#EAF0F6"/>
<path d="M282.764 46.4645C284.076 46.4645 285.14 45.4004 285.14 44.0878C285.14 42.7751 284.076 41.7111 282.764 41.7111C281.451 41.7111 280.387 42.7751 280.387 44.0878C280.387 45.4004 281.451 46.4645 282.764 46.4645Z" fill="#EAF0F6"/>
<path d="M260.264 44.0878C260.264 45.4081 261.32 46.4645 262.641 46.4645C263.961 46.4645 265.018 45.4081 265.018 44.0878C265.018 42.7674 263.961 41.7111 262.641 41.7111C261.32 41.7111 260.264 42.7674 260.264 44.0878Z" fill="#EAF0F6"/>
<path d="M240.142 44.0878C240.142 45.4081 241.198 46.4645 242.518 46.4645C243.839 46.4645 244.895 45.4081 244.895 44.0878C244.895 42.7674 243.839 41.7111 242.518 41.7111C241.198 41.7111 240.142 42.7674 240.142 44.0878Z" fill="#EAF0F6"/>
<path d="M222.343 46.4645C223.656 46.4645 224.72 45.4004 224.72 44.0878C224.72 42.7751 223.656 41.7111 222.343 41.7111C221.03 41.7111 219.966 42.7751 219.966 44.0878C219.966 45.4004 221.03 46.4645 222.343 46.4645Z" fill="#EAF0F6"/>
<path d="M199.844 44.0878C199.844 45.4081 200.9 46.4645 202.22 46.4645C203.541 46.4645 204.597 45.4081 204.597 44.0878C204.597 42.7674 203.541 41.7111 202.22 41.7111C200.9 41.7111 199.844 42.7674 199.844 44.0878Z" fill="#EAF0F6"/>
<path d="M182.044 46.4645C183.357 46.4645 184.421 45.4004 184.421 44.0878C184.421 42.7751 183.357 41.7111 182.044 41.7111C180.732 41.7111 179.668 42.7751 179.668 44.0878C179.668 45.4004 180.732 46.4645 182.044 46.4645Z" fill="#EAF0F6"/>
<path d="M302.939 68.1189C304.252 68.1189 305.316 67.0548 305.316 65.7422C305.316 64.4296 304.252 63.3655 302.939 63.3655C301.627 63.3655 300.562 64.4296 300.562 65.7422C300.562 67.0548 301.627 68.1189 302.939 68.1189Z" fill="#EAF0F6"/>
<path d="M282.764 68.1189C284.076 68.1189 285.14 67.0548 285.14 65.7422C285.14 64.4296 284.076 63.3655 282.764 63.3655C281.451 63.3655 280.387 64.4296 280.387 65.7422C280.387 67.0548 281.451 68.1189 282.764 68.1189Z" fill="#EAF0F6"/>
<path d="M260.264 65.7422C260.264 67.0626 261.32 68.1189 262.641 68.1189C263.961 68.1189 265.018 67.0626 265.018 65.7422C265.018 64.4218 263.961 63.3655 262.641 63.3655C261.32 63.4183 260.264 64.4746 260.264 65.7422Z" fill="#EAF0F6"/>
<path d="M240.142 65.7422C240.142 67.0626 241.198 68.1189 242.518 68.1189C243.839 68.1189 244.895 67.0626 244.895 65.7422C244.895 64.4218 243.839 63.3655 242.518 63.3655C241.198 63.4183 240.142 64.4746 240.142 65.7422Z" fill="#EAF0F6"/>
<path d="M222.343 68.1189C223.656 68.1189 224.72 67.0548 224.72 65.7422C224.72 64.4296 223.656 63.3655 222.343 63.3655C221.03 63.3655 219.966 64.4296 219.966 65.7422C219.966 67.0548 221.03 68.1189 222.343 68.1189Z" fill="#EAF0F6"/>
<path d="M199.844 65.7422C199.844 67.0626 200.9 68.1189 202.22 68.1189C203.541 68.1189 204.597 67.0626 204.597 65.7422C204.597 64.4218 203.541 63.3655 202.22 63.3655C200.9 63.3655 199.844 64.4746 199.844 65.7422Z" fill="#EAF0F6"/>
<path d="M182.044 68.1189C183.357 68.1189 184.421 67.0548 184.421 65.7422C184.421 64.4296 183.357 63.3655 182.044 63.3655C180.732 63.3655 179.668 64.4296 179.668 65.7422C179.668 67.0548 180.732 68.1189 182.044 68.1189Z" fill="#EAF0F6"/>
<path d="M300.562 87.3965C300.562 88.7169 301.619 89.7732 302.939 89.7732C304.26 89.7732 305.316 88.7169 305.316 87.3965C305.316 86.0761 304.26 85.0198 302.939 85.0198C301.619 85.0198 300.562 86.0761 300.562 87.3965Z" fill="#EAF0F6"/>
<path d="M280.44 87.3965C280.44 88.7169 281.496 89.7732 282.817 89.7732C284.137 89.7732 285.193 88.7169 285.193 87.3965C285.193 86.0761 284.137 85.0198 282.817 85.0198C281.496 85.0198 280.44 86.0761 280.44 87.3965Z" fill="#EAF0F6"/>
<path d="M260.264 87.3965C260.264 88.7169 261.32 89.7732 262.641 89.7732C263.961 89.7732 265.018 88.7169 265.018 87.3965C265.018 86.0761 263.961 85.0198 262.641 85.0198C261.32 85.0198 260.264 86.0761 260.264 87.3965Z" fill="#EAF0F6"/>
<path d="M240.142 87.3965C240.142 88.7169 241.198 89.7732 242.518 89.7732C243.839 89.7732 244.895 88.7169 244.895 87.3965C244.895 86.0761 243.839 85.0198 242.518 85.0198C241.198 85.0198 240.142 86.0761 240.142 87.3965Z" fill="#EAF0F6"/>
<path d="M219.966 87.3965C219.966 88.7169 221.023 89.7732 222.343 89.7732C223.663 89.7732 224.72 88.7169 224.72 87.3965C224.72 86.0761 223.663 85.0198 222.343 85.0198C221.023 85.0198 219.966 86.0761 219.966 87.3965Z" fill="#EAF0F6"/>
<path d="M199.844 87.3965C199.844 88.7169 200.9 89.7732 202.22 89.7732C203.541 89.7732 204.597 88.7169 204.597 87.3965C204.597 86.0761 203.541 85.0198 202.22 85.0198C200.9 85.0198 199.844 86.0761 199.844 87.3965Z" fill="#EAF0F6"/>
<path d="M179.668 87.3965C179.668 88.7169 180.724 89.7732 182.044 89.7732C183.365 89.7732 184.421 88.7169 184.421 87.3965C184.421 86.0761 183.365 85.0198 182.044 85.0198C180.724 85.0198 179.668 86.0761 179.668 87.3965Z" fill="#EAF0F6"/>
<path d="M444.485 24.81C445.797 24.81 446.862 23.746 446.862 22.4333C446.862 21.1207 445.797 20.0566 444.485 20.0566C443.172 20.0566 442.108 21.1207 442.108 22.4333C442.108 23.746 443.172 24.81 444.485 24.81Z" fill="#EAF0F6"/>
<path d="M424.31 24.81C425.622 24.81 426.686 23.746 426.686 22.4333C426.686 21.1207 425.622 20.0566 424.31 20.0566C422.997 20.0566 421.933 21.1207 421.933 22.4333C421.933 23.746 422.997 24.81 424.31 24.81Z" fill="#EAF0F6"/>
<path d="M401.81 22.4333C401.81 23.7537 402.866 24.81 404.186 24.81C405.507 24.81 406.563 23.7537 406.563 22.4333C406.563 21.113 405.507 20.0566 404.186 20.0566C402.866 20.0566 401.81 21.113 401.81 22.4333Z" fill="#EAF0F6"/>
<path d="M381.687 22.4333C381.687 23.7537 382.743 24.81 384.064 24.81C385.384 24.81 386.44 23.7537 386.44 22.4333C386.44 21.113 385.384 20.0566 384.064 20.0566C382.743 20.0566 381.687 21.113 381.687 22.4333Z" fill="#EAF0F6"/>
<path d="M363.888 24.81C365.201 24.81 366.265 23.746 366.265 22.4333C366.265 21.1207 365.201 20.0566 363.888 20.0566C362.576 20.0566 361.511 21.1207 361.511 22.4333C361.511 23.746 362.576 24.81 363.888 24.81Z" fill="#EAF0F6"/>
<path d="M341.389 22.4333C341.389 23.7537 342.445 24.81 343.765 24.81C345.086 24.81 346.142 23.7537 346.142 22.4333C346.142 21.113 345.033 20.0566 343.713 20.0566C342.392 20.0566 341.389 21.113 341.389 22.4333Z" fill="#EAF0F6"/>
<path d="M323.59 24.81C324.902 24.81 325.967 23.746 325.967 22.4333C325.967 21.1207 324.902 20.0566 323.59 20.0566C322.277 20.0566 321.213 21.1207 321.213 22.4333C321.213 23.746 322.277 24.81 323.59 24.81Z" fill="#EAF0F6"/>
<path d="M444.485 46.4645C445.797 46.4645 446.862 45.4004 446.862 44.0878C446.862 42.7751 445.797 41.7111 444.485 41.7111C443.172 41.7111 442.108 42.7751 442.108 44.0878C442.108 45.4004 443.172 46.4645 444.485 46.4645Z" fill="#EAF0F6"/>
<path d="M424.31 46.4645C425.622 46.4645 426.686 45.4004 426.686 44.0878C426.686 42.7751 425.622 41.7111 424.31 41.7111C422.997 41.7111 421.933 42.7751 421.933 44.0878C421.933 45.4004 422.997 46.4645 424.31 46.4645Z" fill="#EAF0F6"/>
<path d="M401.81 44.0878C401.81 45.4081 402.866 46.4645 404.186 46.4645C405.507 46.4645 406.563 45.4081 406.563 44.0878C406.563 42.7674 405.507 41.7111 404.186 41.7111C402.866 41.7111 401.81 42.7674 401.81 44.0878Z" fill="#EAF0F6"/>
<path d="M381.687 44.0878C381.687 45.4081 382.743 46.4645 384.064 46.4645C385.384 46.4645 386.44 45.4081 386.44 44.0878C386.44 42.7674 385.384 41.7111 384.064 41.7111C382.743 41.7111 381.687 42.7674 381.687 44.0878Z" fill="#EAF0F6"/>
<path d="M363.888 46.4645C365.201 46.4645 366.265 45.4004 366.265 44.0878C366.265 42.7751 365.201 41.7111 363.888 41.7111C362.576 41.7111 361.511 42.7751 361.511 44.0878C361.511 45.4004 362.576 46.4645 363.888 46.4645Z" fill="#EAF0F6"/>
<path d="M341.389 44.0878C341.389 45.4081 342.445 46.4645 343.765 46.4645C345.086 46.4645 346.142 45.4081 346.142 44.0878C346.142 42.7674 345.086 41.7111 343.765 41.7111C342.445 41.7111 341.389 42.7674 341.389 44.0878Z" fill="#EAF0F6"/>
<path d="M323.59 46.4645C324.902 46.4645 325.967 45.4004 325.967 44.0878C325.967 42.7751 324.902 41.7111 323.59 41.7111C322.277 41.7111 321.213 42.7751 321.213 44.0878C321.213 45.4004 322.277 46.4645 323.59 46.4645Z" fill="#EAF0F6"/>
<path d="M444.485 68.1189C445.797 68.1189 446.862 67.0548 446.862 65.7422C446.862 64.4296 445.797 63.3655 444.485 63.3655C443.172 63.3655 442.108 64.4296 442.108 65.7422C442.108 67.0548 443.172 68.1189 444.485 68.1189Z" fill="#EAF0F6"/>
<path d="M424.31 68.1189C425.622 68.1189 426.686 67.0548 426.686 65.7422C426.686 64.4296 425.622 63.3655 424.31 63.3655C422.997 63.3655 421.933 64.4296 421.933 65.7422C421.933 67.0548 422.997 68.1189 424.31 68.1189Z" fill="#EAF0F6"/>
<path d="M401.81 65.7422C401.81 67.0626 402.866 68.1189 404.186 68.1189C405.507 68.1189 406.563 67.0626 406.563 65.7422C406.563 64.4218 405.507 63.3655 404.186 63.3655C402.866 63.4183 401.81 64.4746 401.81 65.7422Z" fill="#EAF0F6"/>
<path d="M381.687 65.7422C381.687 67.0626 382.743 68.1189 384.064 68.1189C385.384 68.1189 386.44 67.0626 386.44 65.7422C386.44 64.4218 385.384 63.3655 384.064 63.3655C382.743 63.4183 381.687 64.4746 381.687 65.7422Z" fill="#EAF0F6"/>
<path d="M363.888 68.1189C365.201 68.1189 366.265 67.0548 366.265 65.7422C366.265 64.4296 365.201 63.3655 363.888 63.3655C362.576 63.3655 361.511 64.4296 361.511 65.7422C361.511 67.0548 362.576 68.1189 363.888 68.1189Z" fill="#EAF0F6"/>
<path d="M341.389 65.7422C341.389 67.0626 342.445 68.1189 343.765 68.1189C345.086 68.1189 346.142 67.0626 346.142 65.7422C346.142 64.4218 345.086 63.3655 343.765 63.3655C342.445 63.3655 341.389 64.4746 341.389 65.7422Z" fill="#EAF0F6"/>
<path d="M323.59 68.1189C324.902 68.1189 325.967 67.0548 325.967 65.7422C325.967 64.4296 324.902 63.3655 323.59 63.3655C322.277 63.3655 321.213 64.4296 321.213 65.7422C321.213 67.0548 322.277 68.1189 323.59 68.1189Z" fill="#EAF0F6"/>
<path d="M442.108 87.3965C442.108 88.7169 443.164 89.7732 444.485 89.7732C445.805 89.7732 446.862 88.7169 446.862 87.3965C446.862 86.0761 445.805 85.0198 444.485 85.0198C443.164 85.0198 442.108 86.0761 442.108 87.3965Z" fill="#EAF0F6"/>
<path d="M421.985 87.3965C421.985 88.7169 423.042 89.7732 424.362 89.7732C425.682 89.7732 426.739 88.7169 426.739 87.3965C426.739 86.0761 425.682 85.0198 424.362 85.0198C423.042 85.0198 421.985 86.0761 421.985 87.3965Z" fill="#EAF0F6"/>
<path d="M401.81 87.3965C401.81 88.7169 402.866 89.7732 404.186 89.7732C405.507 89.7732 406.563 88.7169 406.563 87.3965C406.563 86.0761 405.507 85.0198 404.186 85.0198C402.866 85.0198 401.81 86.0761 401.81 87.3965Z" fill="#EAF0F6"/>
<path d="M381.687 87.3965C381.687 88.7169 382.743 89.7732 384.064 89.7732C385.384 89.7732 386.44 88.7169 386.44 87.3965C386.44 86.0761 385.384 85.0198 384.064 85.0198C382.743 85.0198 381.687 86.0761 381.687 87.3965Z" fill="#EAF0F6"/>
<path d="M361.511 87.3965C361.511 88.7169 362.568 89.7732 363.888 89.7732C365.209 89.7732 366.265 88.7169 366.265 87.3965C366.265 86.0761 365.209 85.0198 363.888 85.0198C362.568 85.0198 361.511 86.0761 361.511 87.3965Z" fill="#EAF0F6"/>
<path d="M341.389 87.3965C341.389 88.7169 342.445 89.7732 343.765 89.7732C345.086 89.7732 346.142 88.7169 346.142 87.3965C346.142 86.0761 345.086 85.0198 343.765 85.0198C342.445 85.0198 341.389 86.0761 341.389 87.3965Z" fill="#EAF0F6"/>
<path d="M321.213 87.3965C321.213 88.7169 322.269 89.7732 323.59 89.7732C324.91 89.7732 325.967 88.7169 325.967 87.3965C325.967 86.0761 324.91 85.0198 323.59 85.0198C322.269 85.0198 321.213 86.0761 321.213 87.3965Z" fill="#EAF0F6"/>
<path d="M586.806 24.81C588.119 24.81 589.183 23.746 589.183 22.4333C589.183 21.1207 588.119 20.0566 586.806 20.0566C585.494 20.0566 584.43 21.1207 584.43 22.4333C584.43 23.746 585.494 24.81 586.806 24.81Z" fill="#EAF0F6"/>
<path d="M566.631 24.81C567.943 24.81 569.007 23.746 569.007 22.4333C569.007 21.1207 567.943 20.0566 566.631 20.0566C565.318 20.0566 564.254 21.1207 564.254 22.4333C564.254 23.746 565.318 24.81 566.631 24.81Z" fill="#EAF0F6"/>
<path d="M544.131 22.4333C544.131 23.7537 545.188 24.81 546.508 24.81C547.828 24.81 548.885 23.7537 548.885 22.4333C548.885 21.113 547.828 20.0566 546.508 20.0566C545.188 20.0566 544.131 21.113 544.131 22.4333Z" fill="#EAF0F6"/>
<path d="M524.009 22.4333C524.009 23.7537 525.066 24.81 526.386 24.81C527.706 24.81 528.763 23.7537 528.763 22.4333C528.763 21.113 527.706 20.0566 526.386 20.0566C525.066 20.0566 524.009 21.113 524.009 22.4333Z" fill="#EAF0F6"/>
<path d="M506.21 24.81C507.523 24.81 508.587 23.746 508.587 22.4333C508.587 21.1207 507.523 20.0566 506.21 20.0566C504.898 20.0566 503.833 21.1207 503.833 22.4333C503.833 23.746 504.898 24.81 506.21 24.81Z" fill="#EAF0F6"/>
<path d="M483.711 22.4333C483.711 23.7537 484.767 24.81 486.088 24.81C487.408 24.81 488.464 23.7537 488.464 22.4333C488.464 21.113 487.355 20.0566 486.035 20.0566C484.714 20.0566 483.711 21.113 483.711 22.4333Z" fill="#EAF0F6"/>
<path d="M465.912 24.81C467.224 24.81 468.289 23.746 468.289 22.4333C468.289 21.1207 467.224 20.0566 465.912 20.0566C464.599 20.0566 463.535 21.1207 463.535 22.4333C463.535 23.746 464.599 24.81 465.912 24.81Z" fill="#EAF0F6"/>
<path d="M586.806 46.4645C588.119 46.4645 589.183 45.4004 589.183 44.0878C589.183 42.7751 588.119 41.7111 586.806 41.7111C585.494 41.7111 584.43 42.7751 584.43 44.0878C584.43 45.4004 585.494 46.4645 586.806 46.4645Z" fill="#EAF0F6"/>
<path d="M566.631 46.4645C567.943 46.4645 569.007 45.4004 569.007 44.0878C569.007 42.7751 567.943 41.7111 566.631 41.7111C565.318 41.7111 564.254 42.7751 564.254 44.0878C564.254 45.4004 565.318 46.4645 566.631 46.4645Z" fill="#EAF0F6"/>
<path d="M544.131 44.0878C544.131 45.4081 545.188 46.4645 546.508 46.4645C547.828 46.4645 548.885 45.4081 548.885 44.0878C548.885 42.7674 547.828 41.7111 546.508 41.7111C545.188 41.7111 544.131 42.7674 544.131 44.0878Z" fill="#EAF0F6"/>
<path d="M524.009 44.0878C524.009 45.4081 525.066 46.4645 526.386 46.4645C527.706 46.4645 528.763 45.4081 528.763 44.0878C528.763 42.7674 527.706 41.7111 526.386 41.7111C525.066 41.7111 524.009 42.7674 524.009 44.0878Z" fill="#EAF0F6"/>
<path d="M506.21 46.4645C507.523 46.4645 508.587 45.4004 508.587 44.0878C508.587 42.7751 507.523 41.7111 506.21 41.7111C504.898 41.7111 503.833 42.7751 503.833 44.0878C503.833 45.4004 504.898 46.4645 506.21 46.4645Z" fill="#EAF0F6"/>
<path d="M483.711 44.0878C483.711 45.4081 484.767 46.4645 486.088 46.4645C487.408 46.4645 488.464 45.4081 488.464 44.0878C488.464 42.7674 487.408 41.7111 486.088 41.7111C484.767 41.7111 483.711 42.7674 483.711 44.0878Z" fill="#EAF0F6"/>
<path d="M465.912 46.4645C467.224 46.4645 468.289 45.4004 468.289 44.0878C468.289 42.7751 467.224 41.7111 465.912 41.7111C464.599 41.7111 463.535 42.7751 463.535 44.0878C463.535 45.4004 464.599 46.4645 465.912 46.4645Z" fill="#EAF0F6"/>
<path d="M586.806 68.1189C588.119 68.1189 589.183 67.0548 589.183 65.7422C589.183 64.4296 588.119 63.3655 586.806 63.3655C585.494 63.3655 584.43 64.4296 584.43 65.7422C584.43 67.0548 585.494 68.1189 586.806 68.1189Z" fill="#EAF0F6"/>
<path d="M566.631 68.1189C567.943 68.1189 569.007 67.0548 569.007 65.7422C569.007 64.4296 567.943 63.3655 566.631 63.3655C565.318 63.3655 564.254 64.4296 564.254 65.7422C564.254 67.0548 565.318 68.1189 566.631 68.1189Z" fill="#EAF0F6"/>
<path d="M544.131 65.7422C544.131 67.0626 545.188 68.1189 546.508 68.1189C547.828 68.1189 548.885 67.0626 548.885 65.7422C548.885 64.4218 547.828 63.3655 546.508 63.3655C545.188 63.4183 544.131 64.4746 544.131 65.7422Z" fill="#EAF0F6"/>
<path d="M524.009 65.7422C524.009 67.0626 525.066 68.1189 526.386 68.1189C527.706 68.1189 528.763 67.0626 528.763 65.7422C528.763 64.4218 527.706 63.3655 526.386 63.3655C525.066 63.4183 524.009 64.4746 524.009 65.7422Z" fill="#EAF0F6"/>
<path d="M506.21 68.1189C507.523 68.1189 508.587 67.0548 508.587 65.7422C508.587 64.4296 507.523 63.3655 506.21 63.3655C504.898 63.3655 503.833 64.4296 503.833 65.7422C503.833 67.0548 504.898 68.1189 506.21 68.1189Z" fill="#EAF0F6"/>
<path d="M483.711 65.7422C483.711 67.0626 484.767 68.1189 486.088 68.1189C487.408 68.1189 488.464 67.0626 488.464 65.7422C488.464 64.4218 487.408 63.3655 486.088 63.3655C484.767 63.3655 483.711 64.4746 483.711 65.7422Z" fill="#EAF0F6"/>
<path d="M465.912 68.1189C467.224 68.1189 468.289 67.0548 468.289 65.7422C468.289 64.4296 467.224 63.3655 465.912 63.3655C464.599 63.3655 463.535 64.4296 463.535 65.7422C463.535 67.0548 464.599 68.1189 465.912 68.1189Z" fill="#EAF0F6"/>
<path d="M584.43 87.3965C584.43 88.7169 585.486 89.7732 586.806 89.7732C588.127 89.7732 589.183 88.7169 589.183 87.3965C589.183 86.0761 588.127 85.0198 586.806 85.0198C585.486 85.0198 584.43 86.0761 584.43 87.3965Z" fill="#EAF0F6"/>
<path d="M564.307 87.3965C564.307 88.7169 565.363 89.7732 566.684 89.7732C568.004 89.7732 569.061 88.7169 569.061 87.3965C569.061 86.0761 568.004 85.0198 566.684 85.0198C565.363 85.0198 564.307 86.0761 564.307 87.3965Z" fill="#EAF0F6"/>
<path d="M544.131 87.3965C544.131 88.7169 545.188 89.7732 546.508 89.7732C547.828 89.7732 548.885 88.7169 548.885 87.3965C548.885 86.0761 547.828 85.0198 546.508 85.0198C545.188 85.0198 544.131 86.0761 544.131 87.3965Z" fill="#EAF0F6"/>
<path d="M524.009 87.3965C524.009 88.7169 525.066 89.7732 526.386 89.7732C527.706 89.7732 528.763 88.7169 528.763 87.3965C528.763 86.0761 527.706 85.0198 526.386 85.0198C525.066 85.0198 524.009 86.0761 524.009 87.3965Z" fill="#EAF0F6"/>
<path d="M503.833 87.3965C503.833 88.7169 504.89 89.7732 506.21 89.7732C507.531 89.7732 508.587 88.7169 508.587 87.3965C508.587 86.0761 507.531 85.0198 506.21 85.0198C504.89 85.0198 503.833 86.0761 503.833 87.3965Z" fill="#EAF0F6"/>
<path d="M483.711 87.3965C483.711 88.7169 484.767 89.7732 486.088 89.7732C487.408 89.7732 488.464 88.7169 488.464 87.3965C488.464 86.0761 487.408 85.0198 486.088 85.0198C484.767 85.0198 483.711 86.0761 483.711 87.3965Z" fill="#EAF0F6"/>
<path d="M463.535 87.3965C463.535 88.7169 464.591 89.7732 465.912 89.7732C467.232 89.7732 468.289 88.7169 468.289 87.3965C468.289 86.0761 467.232 85.0198 465.912 85.0198C464.591 85.0198 463.535 86.0761 463.535 87.3965Z" fill="#EAF0F6"/>
<path d="M728.353 24.81C729.666 24.81 730.73 23.746 730.73 22.4333C730.73 21.1207 729.666 20.0566 728.353 20.0566C727.041 20.0566 725.977 21.1207 725.977 22.4333C725.977 23.746 727.041 24.81 728.353 24.81Z" fill="#EAF0F6"/>
<path d="M708.177 24.81C709.49 24.81 710.554 23.746 710.554 22.4333C710.554 21.1207 709.49 20.0566 708.177 20.0566C706.865 20.0566 705.801 21.1207 705.801 22.4333C705.801 23.746 706.865 24.81 708.177 24.81Z" fill="#EAF0F6"/>
<path d="M685.678 22.4333C685.678 23.7537 686.734 24.81 688.054 24.81C689.375 24.81 690.431 23.7537 690.431 22.4333C690.431 21.113 689.375 20.0566 688.054 20.0566C686.734 20.0566 685.678 21.113 685.678 22.4333Z" fill="#EAF0F6"/>
<path d="M665.555 22.4333C665.555 23.7537 666.611 24.81 667.931 24.81C669.252 24.81 670.308 23.7537 670.308 22.4333C670.308 21.113 669.252 20.0566 667.931 20.0566C666.611 20.0566 665.555 21.113 665.555 22.4333Z" fill="#EAF0F6"/>
<path d="M647.757 24.81C649.069 24.81 650.133 23.746 650.133 22.4333C650.133 21.1207 649.069 20.0566 647.757 20.0566C646.444 20.0566 645.38 21.1207 645.38 22.4333C645.38 23.746 646.444 24.81 647.757 24.81Z" fill="#EAF0F6"/>
<path d="M625.257 22.4333C625.257 23.7537 626.313 24.81 627.634 24.81C628.954 24.81 630.01 23.7537 630.01 22.4333C630.01 21.113 628.901 20.0566 627.581 20.0566C626.26 20.0566 625.257 21.113 625.257 22.4333Z" fill="#EAF0F6"/>
<path d="M607.458 24.81C608.77 24.81 609.834 23.746 609.834 22.4333C609.834 21.1207 608.77 20.0566 607.458 20.0566C606.145 20.0566 605.081 21.1207 605.081 22.4333C605.081 23.746 606.145 24.81 607.458 24.81Z" fill="#EAF0F6"/>
<path d="M728.353 46.4645C729.666 46.4645 730.73 45.4004 730.73 44.0878C730.73 42.7751 729.666 41.7111 728.353 41.7111C727.041 41.7111 725.977 42.7751 725.977 44.0878C725.977 45.4004 727.041 46.4645 728.353 46.4645Z" fill="#EAF0F6"/>
<path d="M708.177 46.4645C709.49 46.4645 710.554 45.4004 710.554 44.0878C710.554 42.7751 709.49 41.7111 708.177 41.7111C706.865 41.7111 705.801 42.7751 705.801 44.0878C705.801 45.4004 706.865 46.4645 708.177 46.4645Z" fill="#EAF0F6"/>
<path d="M685.678 44.0878C685.678 45.4081 686.734 46.4645 688.054 46.4645C689.375 46.4645 690.431 45.4081 690.431 44.0878C690.431 42.7674 689.375 41.7111 688.054 41.7111C686.734 41.7111 685.678 42.7674 685.678 44.0878Z" fill="#EAF0F6"/>
<path d="M665.555 44.0878C665.555 45.4081 666.611 46.4645 667.931 46.4645C669.252 46.4645 670.308 45.4081 670.308 44.0878C670.308 42.7674 669.252 41.7111 667.931 41.7111C666.611 41.7111 665.555 42.7674 665.555 44.0878Z" fill="#EAF0F6"/>
<path d="M647.757 46.4645C649.069 46.4645 650.133 45.4004 650.133 44.0878C650.133 42.7751 649.069 41.7111 647.757 41.7111C646.444 41.7111 645.38 42.7751 645.38 44.0878C645.38 45.4004 646.444 46.4645 647.757 46.4645Z" fill="#EAF0F6"/>
<path d="M625.257 44.0878C625.257 45.4081 626.313 46.4645 627.634 46.4645C628.954 46.4645 630.01 45.4081 630.01 44.0878C630.01 42.7674 628.954 41.7111 627.634 41.7111C626.313 41.7111 625.257 42.7674 625.257 44.0878Z" fill="#EAF0F6"/>
<path d="M607.458 46.4645C608.77 46.4645 609.834 45.4004 609.834 44.0878C609.834 42.7751 608.77 41.7111 607.458 41.7111C606.145 41.7111 605.081 42.7751 605.081 44.0878C605.081 45.4004 606.145 46.4645 607.458 46.4645Z" fill="#EAF0F6"/>
<path d="M728.353 68.1189C729.666 68.1189 730.73 67.0548 730.73 65.7422C730.73 64.4296 729.666 63.3655 728.353 63.3655C727.041 63.3655 725.977 64.4296 725.977 65.7422C725.977 67.0548 727.041 68.1189 728.353 68.1189Z" fill="#EAF0F6"/>
<path d="M708.177 68.1189C709.49 68.1189 710.554 67.0548 710.554 65.7422C710.554 64.4296 709.49 63.3655 708.177 63.3655C706.865 63.3655 705.801 64.4296 705.801 65.7422C705.801 67.0548 706.865 68.1189 708.177 68.1189Z" fill="#EAF0F6"/>
<path d="M685.678 65.7422C685.678 67.0626 686.734 68.1189 688.054 68.1189C689.375 68.1189 690.431 67.0626 690.431 65.7422C690.431 64.4218 689.375 63.3655 688.054 63.3655C686.734 63.4183 685.678 64.4746 685.678 65.7422Z" fill="#EAF0F6"/>
<path d="M665.555 65.7422C665.555 67.0626 666.611 68.1189 667.931 68.1189C669.252 68.1189 670.308 67.0626 670.308 65.7422C670.308 64.4218 669.252 63.3655 667.931 63.3655C666.611 63.4183 665.555 64.4746 665.555 65.7422Z" fill="#EAF0F6"/>
<path d="M647.757 68.1189C649.069 68.1189 650.133 67.0548 650.133 65.7422C650.133 64.4296 649.069 63.3655 647.757 63.3655C646.444 63.3655 645.38 64.4296 645.38 65.7422C645.38 67.0548 646.444 68.1189 647.757 68.1189Z" fill="#EAF0F6"/>
<path d="M625.257 65.7422C625.257 67.0626 626.313 68.1189 627.634 68.1189C628.954 68.1189 630.01 67.0626 630.01 65.7422C630.01 64.4218 628.954 63.3655 627.634 63.3655C626.313 63.3655 625.257 64.4746 625.257 65.7422Z" fill="#EAF0F6"/>
<path d="M607.458 68.1189C608.77 68.1189 609.834 67.0548 609.834 65.7422C609.834 64.4296 608.77 63.3655 607.458 63.3655C606.145 63.3655 605.081 64.4296 605.081 65.7422C605.081 67.0548 606.145 68.1189 607.458 68.1189Z" fill="#EAF0F6"/>
<path d="M725.977 87.3965C725.977 88.7169 727.033 89.7732 728.353 89.7732C729.674 89.7732 730.73 88.7169 730.73 87.3965C730.73 86.0761 729.674 85.0198 728.353 85.0198C727.033 85.0198 725.977 86.0761 725.977 87.3965Z" fill="#EAF0F6"/>
<path d="M705.854 87.3965C705.854 88.7169 706.91 89.7732 708.23 89.7732C709.551 89.7732 710.607 88.7169 710.607 87.3965C710.607 86.0761 709.551 85.0198 708.23 85.0198C706.91 85.0198 705.854 86.0761 705.854 87.3965Z" fill="#EAF0F6"/>
<path d="M685.678 87.3965C685.678 88.7169 686.734 89.7732 688.054 89.7732C689.375 89.7732 690.431 88.7169 690.431 87.3965C690.431 86.0761 689.375 85.0198 688.054 85.0198C686.734 85.0198 685.678 86.0761 685.678 87.3965Z" fill="#EAF0F6"/>
<path d="M665.555 87.3965C665.555 88.7169 666.611 89.7732 667.931 89.7732C669.252 89.7732 670.308 88.7169 670.308 87.3965C670.308 86.0761 669.252 85.0198 667.931 85.0198C666.611 85.0198 665.555 86.0761 665.555 87.3965Z" fill="#EAF0F6"/>
<path d="M645.38 87.3965C645.38 88.7169 646.436 89.7732 647.757 89.7732C649.077 89.7732 650.133 88.7169 650.133 87.3965C650.133 86.0761 649.077 85.0198 647.757 85.0198C646.436 85.0198 645.38 86.0761 645.38 87.3965Z" fill="#EAF0F6"/>
<path d="M625.257 87.3965C625.257 88.7169 626.313 89.7732 627.634 89.7732C628.954 89.7732 630.01 88.7169 630.01 87.3965C630.01 86.0761 628.954 85.0198 627.634 85.0198C626.313 85.0198 625.257 86.0761 625.257 87.3965Z" fill="#EAF0F6"/>
<path d="M605.081 87.3965C605.081 88.7169 606.137 89.7732 607.458 89.7732C608.778 89.7732 609.834 88.7169 609.834 87.3965C609.834 86.0761 608.778 85.0198 607.458 85.0198C606.137 85.0198 605.081 86.0761 605.081 87.3965Z" fill="#EAF0F6"/>
<path d="M872.053 24.81C873.366 24.81 874.43 23.746 874.43 22.4333C874.43 21.1207 873.366 20.0566 872.053 20.0566C870.74 20.0566 869.676 21.1207 869.676 22.4333C869.676 23.746 870.74 24.81 872.053 24.81Z" fill="#EAF0F6"/>
<path d="M851.877 24.81C853.19 24.81 854.254 23.746 854.254 22.4333C854.254 21.1207 853.19 20.0566 851.877 20.0566C850.565 20.0566 849.5 21.1207 849.5 22.4333C849.5 23.746 850.565 24.81 851.877 24.81Z" fill="#EAF0F6"/>
<path d="M829.378 22.4333C829.378 23.7537 830.434 24.81 831.755 24.81C833.075 24.81 834.131 23.7537 834.131 22.4333C834.131 21.113 833.075 20.0566 831.755 20.0566C830.434 20.0566 829.378 21.113 829.378 22.4333Z" fill="#EAF0F6"/>
<path d="M809.255 22.4333C809.255 23.7537 810.311 24.81 811.632 24.81C812.952 24.81 814.008 23.7537 814.008 22.4333C814.008 21.113 812.952 20.0566 811.632 20.0566C810.311 20.0566 809.255 21.113 809.255 22.4333Z" fill="#EAF0F6"/>
<path d="M791.456 24.81C792.769 24.81 793.833 23.746 793.833 22.4333C793.833 21.1207 792.769 20.0566 791.456 20.0566C790.144 20.0566 789.08 21.1207 789.08 22.4333C789.08 23.746 790.144 24.81 791.456 24.81Z" fill="#EAF0F6"/>
<path d="M768.957 22.4333C768.957 23.7537 770.013 24.81 771.334 24.81C772.654 24.81 773.71 23.7537 773.71 22.4333C773.71 21.113 772.601 20.0566 771.281 20.0566C769.961 20.0566 768.957 21.113 768.957 22.4333Z" fill="#EAF0F6"/>
<path d="M751.158 24.81C752.471 24.81 753.535 23.746 753.535 22.4333C753.535 21.1207 752.471 20.0566 751.158 20.0566C749.845 20.0566 748.781 21.1207 748.781 22.4333C748.781 23.746 749.845 24.81 751.158 24.81Z" fill="#EAF0F6"/>
<path d="M872.053 46.4645C873.366 46.4645 874.43 45.4004 874.43 44.0878C874.43 42.7751 873.366 41.7111 872.053 41.7111C870.74 41.7111 869.676 42.7751 869.676 44.0878C869.676 45.4004 870.74 46.4645 872.053 46.4645Z" fill="#EAF0F6"/>
<path d="M851.877 46.4645C853.19 46.4645 854.254 45.4004 854.254 44.0878C854.254 42.7751 853.19 41.7111 851.877 41.7111C850.565 41.7111 849.5 42.7751 849.5 44.0878C849.5 45.4004 850.565 46.4645 851.877 46.4645Z" fill="#EAF0F6"/>
<path d="M829.378 44.0878C829.378 45.4081 830.434 46.4645 831.755 46.4645C833.075 46.4645 834.131 45.4081 834.131 44.0878C834.131 42.7674 833.075 41.7111 831.755 41.7111C830.434 41.7111 829.378 42.7674 829.378 44.0878Z" fill="#EAF0F6"/>
<path d="M809.255 44.0878C809.255 45.4081 810.311 46.4645 811.632 46.4645C812.952 46.4645 814.008 45.4081 814.008 44.0878C814.008 42.7674 812.952 41.7111 811.632 41.7111C810.311 41.7111 809.255 42.7674 809.255 44.0878Z" fill="#EAF0F6"/>
<path d="M791.456 46.4645C792.769 46.4645 793.833 45.4004 793.833 44.0878C793.833 42.7751 792.769 41.7111 791.456 41.7111C790.144 41.7111 789.08 42.7751 789.08 44.0878C789.08 45.4004 790.144 46.4645 791.456 46.4645Z" fill="#EAF0F6"/>
<path d="M768.957 44.0878C768.957 45.4081 770.013 46.4645 771.334 46.4645C772.654 46.4645 773.71 45.4081 773.71 44.0878C773.71 42.7674 772.654 41.7111 771.334 41.7111C770.013 41.7111 768.957 42.7674 768.957 44.0878Z" fill="#EAF0F6"/>
<path d="M751.158 46.4645C752.471 46.4645 753.535 45.4004 753.535 44.0878C753.535 42.7751 752.471 41.7111 751.158 41.7111C749.845 41.7111 748.781 42.7751 748.781 44.0878C748.781 45.4004 749.845 46.4645 751.158 46.4645Z" fill="#EAF0F6"/>
<path d="M872.053 68.1188C873.366 68.1188 874.43 67.0547 874.43 65.7421C874.43 64.4294 873.366 63.3654 872.053 63.3654C870.74 63.3654 869.676 64.4294 869.676 65.7421C869.676 67.0547 870.74 68.1188 872.053 68.1188Z" fill="#EAF0F6"/>
<path d="M851.877 68.1188C853.19 68.1188 854.254 67.0547 854.254 65.7421C854.254 64.4294 853.19 63.3654 851.877 63.3654C850.565 63.3654 849.5 64.4294 849.5 65.7421C849.5 67.0547 850.565 68.1188 851.877 68.1188Z" fill="#EAF0F6"/>
<path d="M829.378 65.7421C829.378 67.0624 830.434 68.1188 831.755 68.1188C833.075 68.1188 834.131 67.0624 834.131 65.7421C834.131 64.4217 833.075 63.3654 831.755 63.3654C830.434 63.4182 829.378 64.4745 829.378 65.7421Z" fill="#EAF0F6"/>
<path d="M809.255 65.7421C809.255 67.0624 810.311 68.1188 811.632 68.1188C812.952 68.1188 814.008 67.0624 814.008 65.7421C814.008 64.4217 812.952 63.3654 811.632 63.3654C810.311 63.4182 809.255 64.4745 809.255 65.7421Z" fill="#EAF0F6"/>
<path d="M791.456 68.1188C792.769 68.1188 793.833 67.0547 793.833 65.7421C793.833 64.4294 792.769 63.3654 791.456 63.3654C790.144 63.3654 789.08 64.4294 789.08 65.7421C789.08 67.0547 790.144 68.1188 791.456 68.1188Z" fill="#EAF0F6"/>
<path d="M768.957 65.7421C768.957 67.0624 770.013 68.1188 771.334 68.1188C772.654 68.1188 773.71 67.0624 773.71 65.7421C773.71 64.4217 772.654 63.3654 771.334 63.3654C770.013 63.3654 768.957 64.4745 768.957 65.7421Z" fill="#EAF0F6"/>
<path d="M751.158 68.1188C752.471 68.1188 753.535 67.0547 753.535 65.7421C753.535 64.4294 752.471 63.3654 751.158 63.3654C749.845 63.3654 748.781 64.4294 748.781 65.7421C748.781 67.0547 749.845 68.1188 751.158 68.1188Z" fill="#EAF0F6"/>
<path d="M869.676 87.3965C869.676 88.7169 870.733 89.7732 872.053 89.7732C873.373 89.7732 874.43 88.7169 874.43 87.3965C874.43 86.0761 873.373 85.0198 872.053 85.0198C870.733 85.0198 869.676 86.0761 869.676 87.3965Z" fill="#EAF0F6"/>
<path d="M849.554 87.3965C849.554 88.7169 850.61 89.7732 851.93 89.7732C853.251 89.7732 854.307 88.7169 854.307 87.3965C854.307 86.0761 853.251 85.0198 851.93 85.0198C850.61 85.0198 849.554 86.0761 849.554 87.3965Z" fill="#EAF0F6"/>
<path d="M829.378 87.3965C829.378 88.7169 830.434 89.7732 831.755 89.7732C833.075 89.7732 834.131 88.7169 834.131 87.3965C834.131 86.0761 833.075 85.0198 831.755 85.0198C830.434 85.0198 829.378 86.0761 829.378 87.3965Z" fill="#EAF0F6"/>
<path d="M809.255 87.3965C809.255 88.7169 810.311 89.7732 811.632 89.7732C812.952 89.7732 814.008 88.7169 814.008 87.3965C814.008 86.0761 812.952 85.0198 811.632 85.0198C810.311 85.0198 809.255 86.0761 809.255 87.3965Z" fill="#EAF0F6"/>
<path d="M789.08 87.3965C789.08 88.7169 790.136 89.7732 791.456 89.7732C792.777 89.7732 793.833 88.7169 793.833 87.3965C793.833 86.0761 792.777 85.0198 791.456 85.0198C790.136 85.0198 789.08 86.0761 789.08 87.3965Z" fill="#EAF0F6"/>
<path d="M768.957 87.3965C768.957 88.7169 770.013 89.7732 771.334 89.7732C772.654 89.7732 773.71 88.7169 773.71 87.3965C773.71 86.0761 772.654 85.0198 771.334 85.0198C770.013 85.0198 768.957 86.0761 768.957 87.3965Z" fill="#EAF0F6"/>
<path d="M748.781 87.3965C748.781 88.7169 749.838 89.7732 751.158 89.7732C752.478 89.7732 753.535 88.7169 753.535 87.3965C753.535 86.0761 752.478 85.0198 751.158 85.0198C749.838 85.0198 748.781 86.0761 748.781 87.3965Z" fill="#EAF0F6"/>
<path d="M300.562 2.3767C300.562 3.69709 301.619 4.7534 302.939 4.7534C304.26 4.7534 305.316 3.69709 305.316 2.3767C305.316 1.05631 304.26 0 302.939 0C301.619 0 300.562 1.05631 300.562 2.3767Z" fill="#EAF0F6"/>
<path d="M280.44 2.3767C280.44 3.69709 281.496 4.7534 282.816 4.7534C284.137 4.7534 285.193 3.69709 285.193 2.3767C285.193 1.05631 284.137 0 282.816 0C281.496 0 280.44 1.05631 280.44 2.3767Z" fill="#EAF0F6"/>
<path d="M260.264 2.3767C260.264 3.69709 261.32 4.7534 262.641 4.7534C263.961 4.7534 265.018 3.69709 265.018 2.3767C265.018 1.05631 263.961 0 262.641 0C261.32 0 260.264 1.05631 260.264 2.3767Z" fill="#EAF0F6"/>
<path d="M240.141 2.3767C240.141 3.69709 241.198 4.7534 242.518 4.7534C243.838 4.7534 244.895 3.69709 244.895 2.3767C244.895 1.05631 243.838 0 242.518 0C241.198 0 240.141 1.05631 240.141 2.3767Z" fill="#EAF0F6"/>
<path d="M219.966 2.3767C219.966 3.69709 221.023 4.7534 222.343 4.7534C223.663 4.7534 224.72 3.69709 224.72 2.3767C224.72 1.05631 223.663 0 222.343 0C221.023 0 219.966 1.05631 219.966 2.3767Z" fill="#EAF0F6"/>
<path d="M199.843 2.3767C199.843 3.69709 200.9 4.7534 202.22 4.7534C203.54 4.7534 204.597 3.69709 204.597 2.3767C204.597 1.05631 203.54 0 202.22 0C200.9 0 199.843 1.05631 199.843 2.3767Z" fill="#EAF0F6"/>
<path d="M179.667 2.3767C179.667 3.69709 180.724 4.7534 182.044 4.7534C183.365 4.7534 184.421 3.69709 184.421 2.3767C184.421 1.05631 183.365 0 182.044 0C180.724 0 179.667 1.05631 179.667 2.3767Z" fill="#EAF0F6"/>
<path d="M442.108 2.3767C442.108 3.69709 443.164 4.7534 444.485 4.7534C445.805 4.7534 446.861 3.69709 446.861 2.3767C446.861 1.05631 445.805 0 444.485 0C443.164 0 442.108 1.05631 442.108 2.3767Z" fill="#EAF0F6"/>
<path d="M421.985 2.3767C421.985 3.69709 423.041 4.7534 424.362 4.7534C425.682 4.7534 426.739 3.69709 426.739 2.3767C426.739 1.05631 425.682 0 424.362 0C423.041 0 421.985 1.05631 421.985 2.3767Z" fill="#EAF0F6"/>
<path d="M401.81 2.3767C401.81 3.69709 402.866 4.7534 404.186 4.7534C405.507 4.7534 406.563 3.69709 406.563 2.3767C406.563 1.05631 405.507 0 404.186 0C402.866 0 401.81 1.05631 401.81 2.3767Z" fill="#EAF0F6"/>
<path d="M381.687 2.3767C381.687 3.69709 382.743 4.7534 384.063 4.7534C385.384 4.7534 386.44 3.69709 386.44 2.3767C386.44 1.05631 385.384 0 384.063 0C382.743 0 381.687 1.05631 381.687 2.3767Z" fill="#EAF0F6"/>
<path d="M361.511 2.3767C361.511 3.69709 362.568 4.7534 363.888 4.7534C365.209 4.7534 366.265 3.69709 366.265 2.3767C366.265 1.05631 365.209 0 363.888 0C362.568 0 361.511 1.05631 361.511 2.3767Z" fill="#EAF0F6"/>
<path d="M341.389 2.3767C341.389 3.69709 342.445 4.7534 343.765 4.7534C345.086 4.7534 346.142 3.69709 346.142 2.3767C346.142 1.05631 345.086 0 343.765 0C342.445 0 341.389 1.05631 341.389 2.3767Z" fill="#EAF0F6"/>
<path d="M321.213 2.3767C321.213 3.69709 322.269 4.7534 323.59 4.7534C324.91 4.7534 325.967 3.69709 325.967 2.3767C325.967 1.05631 324.91 0 323.59 0C322.269 0 321.213 1.05631 321.213 2.3767Z" fill="#EAF0F6"/>
<path d="M584.43 2.3767C584.43 3.69709 585.486 4.7534 586.807 4.7534C588.127 4.7534 589.184 3.69709 589.184 2.3767C589.184 1.05631 588.127 0 586.807 0C585.486 0 584.43 1.05631 584.43 2.3767Z" fill="#EAF0F6"/>
<path d="M564.308 2.3767C564.308 3.69709 565.364 4.7534 566.684 4.7534C568.005 4.7534 569.061 3.69709 569.061 2.3767C569.061 1.05631 568.005 0 566.684 0C565.364 0 564.308 1.05631 564.308 2.3767Z" fill="#EAF0F6"/>
<path d="M544.132 2.3767C544.132 3.69709 545.188 4.7534 546.509 4.7534C547.829 4.7534 548.885 3.69709 548.885 2.3767C548.885 1.05631 547.829 0 546.509 0C545.188 0 544.132 1.05631 544.132 2.3767Z" fill="#EAF0F6"/>
<path d="M524.01 2.3767C524.01 3.69709 525.066 4.7534 526.386 4.7534C527.707 4.7534 528.763 3.69709 528.763 2.3767C528.763 1.05631 527.707 0 526.386 0C525.066 0 524.01 1.05631 524.01 2.3767Z" fill="#EAF0F6"/>
<path d="M503.834 2.3767C503.834 3.69709 504.89 4.7534 506.211 4.7534C507.531 4.7534 508.587 3.69709 508.587 2.3767C508.587 1.05631 507.531 0 506.211 0C504.89 0 503.834 1.05631 503.834 2.3767Z" fill="#EAF0F6"/>
<path d="M483.711 2.3767C483.711 3.69709 484.767 4.7534 486.088 4.7534C487.408 4.7534 488.464 3.69709 488.464 2.3767C488.464 1.05631 487.408 0 486.088 0C484.767 0 483.711 1.05631 483.711 2.3767Z" fill="#EAF0F6"/>
<path d="M463.535 2.3767C463.535 3.69709 464.591 4.7534 465.912 4.7534C467.232 4.7534 468.289 3.69709 468.289 2.3767C468.289 1.05631 467.232 0 465.912 0C464.591 0 463.535 1.05631 463.535 2.3767Z" fill="#EAF0F6"/>
<path d="M725.976 2.3767C725.976 3.69709 727.032 4.7534 728.352 4.7534C729.673 4.7534 730.729 3.69709 730.729 2.3767C730.729 1.05631 729.673 0 728.352 0C727.032 0 725.976 1.05631 725.976 2.3767Z" fill="#EAF0F6"/>
<path d="M705.853 2.3767C705.853 3.69709 706.909 4.7534 708.23 4.7534C709.55 4.7534 710.606 3.69709 710.606 2.3767C710.606 1.05631 709.55 0 708.23 0C706.909 0 705.853 1.05631 705.853 2.3767Z" fill="#EAF0F6"/>
<path d="M685.677 2.3767C685.677 3.69709 686.734 4.7534 688.054 4.7534C689.374 4.7534 690.431 3.69709 690.431 2.3767C690.431 1.05631 689.374 0 688.054 0C686.734 0 685.677 1.05631 685.677 2.3767Z" fill="#EAF0F6"/>
<path d="M665.555 2.3767C665.555 3.69709 666.611 4.7534 667.931 4.7534C669.252 4.7534 670.308 3.69709 670.308 2.3767C670.308 1.05631 669.252 0 667.931 0C666.611 0 665.555 1.05631 665.555 2.3767Z" fill="#EAF0F6"/>
<path d="M645.379 2.3767C645.379 3.69709 646.436 4.7534 647.756 4.7534C649.076 4.7534 650.133 3.69709 650.133 2.3767C650.133 1.05631 649.076 0 647.756 0C646.436 0 645.379 1.05631 645.379 2.3767Z" fill="#EAF0F6"/>
<path d="M625.256 2.3767C625.256 3.69709 626.313 4.7534 627.633 4.7534C628.953 4.7534 630.01 3.69709 630.01 2.3767C630.01 1.05631 628.953 0 627.633 0C626.313 0 625.256 1.05631 625.256 2.3767Z" fill="#EAF0F6"/>
<path d="M605.081 2.3767C605.081 3.69709 606.137 4.7534 607.458 4.7534C608.778 4.7534 609.834 3.69709 609.834 2.3767C609.834 1.05631 608.778 0 607.458 0C606.137 0 605.081 1.05631 605.081 2.3767Z" fill="#EAF0F6"/>
<path d="M869.676 2.3767C869.676 3.69709 870.732 4.7534 872.052 4.7534C873.373 4.7534 874.429 3.69709 874.429 2.3767C874.429 1.05631 873.373 0 872.052 0C870.732 0 869.676 1.05631 869.676 2.3767Z" fill="#EAF0F6"/>
<path d="M849.553 2.3767C849.553 3.69709 850.61 4.7534 851.93 4.7534C853.25 4.7534 854.307 3.69709 854.307 2.3767C854.307 1.05631 853.25 0 851.93 0C850.61 0 849.553 1.05631 849.553 2.3767Z" fill="#EAF0F6"/>
<path d="M829.377 2.3767C829.377 3.69709 830.434 4.7534 831.754 4.7534C833.075 4.7534 834.131 3.69709 834.131 2.3767C834.131 1.05631 833.075 0 831.754 0C830.434 0 829.377 1.05631 829.377 2.3767Z" fill="#EAF0F6"/>
<path d="M809.255 2.3767C809.255 3.69709 810.311 4.7534 811.632 4.7534C812.952 4.7534 814.008 3.69709 814.008 2.3767C814.008 1.05631 812.952 0 811.632 0C810.311 0 809.255 1.05631 809.255 2.3767Z" fill="#EAF0F6"/>
<path d="M789.079 2.3767C789.079 3.69709 790.135 4.7534 791.456 4.7534C792.776 4.7534 793.833 3.69709 793.833 2.3767C793.833 1.05631 792.776 0 791.456 0C790.135 0 789.079 1.05631 789.079 2.3767Z" fill="#EAF0F6"/>
<path d="M768.956 2.3767C768.956 3.69709 770.012 4.7534 771.333 4.7534C772.653 4.7534 773.709 3.69709 773.709 2.3767C773.709 1.05631 772.653 0 771.333 0C770.012 0 768.956 1.05631 768.956 2.3767Z" fill="#EAF0F6"/>
<path d="M748.781 2.3767C748.781 3.69709 749.838 4.7534 751.158 4.7534C752.478 4.7534 753.535 3.69709 753.535 2.3767C753.535 1.05631 752.478 0 751.158 0C749.838 0 748.781 1.05631 748.781 2.3767Z" fill="#EAF0F6"/>
<path d="M1011.38 24.81C1012.69 24.81 1013.75 23.746 1013.75 22.4333C1013.75 21.1207 1012.69 20.0566 1011.38 20.0566C1010.06 20.0566 1009 21.1207 1009 22.4333C1009 23.746 1010.06 24.81 1011.38 24.81Z" fill="#EAF0F6"/>
<path d="M991.2 24.81C992.513 24.81 993.577 23.746 993.577 22.4333C993.577 21.1207 992.513 20.0566 991.2 20.0566C989.888 20.0566 988.824 21.1207 988.824 22.4333C988.824 23.746 989.888 24.81 991.2 24.81Z" fill="#EAF0F6"/>
<path d="M968.701 22.4333C968.701 23.7537 969.757 24.81 971.078 24.81C972.398 24.81 973.455 23.7537 973.455 22.4333C973.455 21.113 972.398 20.0566 971.078 20.0566C969.757 20.0566 968.701 21.113 968.701 22.4333Z" fill="#EAF0F6"/>
<path d="M948.578 22.4333C948.578 23.7537 949.634 24.81 950.955 24.81C952.275 24.81 953.332 23.7537 953.332 22.4333C953.332 21.113 952.275 20.0566 950.955 20.0566C949.634 20.0566 948.578 21.113 948.578 22.4333Z" fill="#EAF0F6"/>
<path d="M930.78 24.81C932.093 24.81 933.157 23.746 933.157 22.4333C933.157 21.1207 932.093 20.0566 930.78 20.0566C929.467 20.0566 928.403 21.1207 928.403 22.4333C928.403 23.746 929.467 24.81 930.78 24.81Z" fill="#EAF0F6"/>
<path d="M908.28 22.4333C908.28 23.7537 909.337 24.81 910.657 24.81C911.977 24.81 913.034 23.7537 913.034 22.4333C913.034 21.113 911.925 20.0566 910.604 20.0566C909.284 20.0566 908.28 21.113 908.28 22.4333Z" fill="#EAF0F6"/>
<path d="M890.481 24.81C891.794 24.81 892.858 23.746 892.858 22.4333C892.858 21.1207 891.794 20.0566 890.481 20.0566C889.169 20.0566 888.104 21.1207 888.104 22.4333C888.104 23.746 889.169 24.81 890.481 24.81Z" fill="#EAF0F6"/>
<path d="M1011.38 46.4645C1012.69 46.4645 1013.75 45.4004 1013.75 44.0878C1013.75 42.7751 1012.69 41.7111 1011.38 41.7111C1010.06 41.7111 1009 42.7751 1009 44.0878C1009 45.4004 1010.06 46.4645 1011.38 46.4645Z" fill="#EAF0F6"/>
<path d="M991.2 46.4645C992.513 46.4645 993.577 45.4004 993.577 44.0878C993.577 42.7751 992.513 41.7111 991.2 41.7111C989.888 41.7111 988.824 42.7751 988.824 44.0878C988.824 45.4004 989.888 46.4645 991.2 46.4645Z" fill="#EAF0F6"/>
<path d="M968.701 44.0878C968.701 45.4081 969.757 46.4645 971.078 46.4645C972.398 46.4645 973.455 45.4081 973.455 44.0878C973.455 42.7674 972.398 41.7111 971.078 41.7111C969.757 41.7111 968.701 42.7674 968.701 44.0878Z" fill="#EAF0F6"/>
<path d="M948.578 44.0878C948.578 45.4081 949.634 46.4645 950.955 46.4645C952.275 46.4645 953.332 45.4081 953.332 44.0878C953.332 42.7674 952.275 41.7111 950.955 41.7111C949.634 41.7111 948.578 42.7674 948.578 44.0878Z" fill="#EAF0F6"/>
<path d="M930.78 46.4645C932.093 46.4645 933.157 45.4004 933.157 44.0878C933.157 42.7751 932.093 41.7111 930.78 41.7111C929.467 41.7111 928.403 42.7751 928.403 44.0878C928.403 45.4004 929.467 46.4645 930.78 46.4645Z" fill="#EAF0F6"/>
<path d="M908.28 44.0878C908.28 45.4081 909.337 46.4645 910.657 46.4645C911.977 46.4645 913.034 45.4081 913.034 44.0878C913.034 42.7674 911.977 41.7111 910.657 41.7111C909.337 41.7111 908.28 42.7674 908.28 44.0878Z" fill="#EAF0F6"/>
<path d="M890.481 46.4645C891.794 46.4645 892.858 45.4004 892.858 44.0878C892.858 42.7751 891.794 41.7111 890.481 41.7111C889.169 41.7111 888.104 42.7751 888.104 44.0878C888.104 45.4004 889.169 46.4645 890.481 46.4645Z" fill="#EAF0F6"/>
<path d="M1011.38 68.1189C1012.69 68.1189 1013.75 67.0548 1013.75 65.7422C1013.75 64.4296 1012.69 63.3655 1011.38 63.3655C1010.06 63.3655 1009 64.4296 1009 65.7422C1009 67.0548 1010.06 68.1189 1011.38 68.1189Z" fill="#EAF0F6"/>
<path d="M991.2 68.1189C992.513 68.1189 993.577 67.0548 993.577 65.7422C993.577 64.4296 992.513 63.3655 991.2 63.3655C989.888 63.3655 988.824 64.4296 988.824 65.7422C988.824 67.0548 989.888 68.1189 991.2 68.1189Z" fill="#EAF0F6"/>
<path d="M968.701 65.7422C968.701 67.0626 969.757 68.1189 971.078 68.1189C972.398 68.1189 973.455 67.0626 973.455 65.7422C973.455 64.4218 972.398 63.3655 971.078 63.3655C969.757 63.4183 968.701 64.4746 968.701 65.7422Z" fill="#EAF0F6"/>
<path d="M948.578 65.7422C948.578 67.0626 949.634 68.1189 950.955 68.1189C952.275 68.1189 953.332 67.0626 953.332 65.7422C953.332 64.4218 952.275 63.3655 950.955 63.3655C949.634 63.4183 948.578 64.4746 948.578 65.7422Z" fill="#EAF0F6"/>
<path d="M930.78 68.1189C932.093 68.1189 933.157 67.0548 933.157 65.7422C933.157 64.4296 932.093 63.3655 930.78 63.3655C929.467 63.3655 928.403 64.4296 928.403 65.7422C928.403 67.0548 929.467 68.1189 930.78 68.1189Z" fill="#EAF0F6"/>
<path d="M908.28 65.7422C908.28 67.0626 909.337 68.1189 910.657 68.1189C911.977 68.1189 913.034 67.0626 913.034 65.7422C913.034 64.4218 911.977 63.3655 910.657 63.3655C909.337 63.3655 908.28 64.4746 908.28 65.7422Z" fill="#EAF0F6"/>
<path d="M890.481 68.1189C891.794 68.1189 892.858 67.0548 892.858 65.7422C892.858 64.4296 891.794 63.3655 890.481 63.3655C889.169 63.3655 888.104 64.4296 888.104 65.7422C888.104 67.0548 889.169 68.1189 890.481 68.1189Z" fill="#EAF0F6"/>
<path d="M1009 87.3966C1009 88.717 1010.06 89.7733 1011.38 89.7733C1012.7 89.7733 1013.75 88.717 1013.75 87.3966C1013.75 86.0762 1012.7 85.0199 1011.38 85.0199C1010.06 85.0199 1009 86.0762 1009 87.3966Z" fill="#EAF0F6"/>
<path d="M988.877 87.3966C988.877 88.717 989.933 89.7733 991.254 89.7733C992.574 89.7733 993.63 88.717 993.63 87.3966C993.63 86.0762 992.574 85.0199 991.254 85.0199C989.933 85.0199 988.877 86.0762 988.877 87.3966Z" fill="#EAF0F6"/>
<path d="M968.701 87.3966C968.701 88.717 969.757 89.7733 971.078 89.7733C972.398 89.7733 973.455 88.717 973.455 87.3966C973.455 86.0762 972.398 85.0199 971.078 85.0199C969.757 85.0199 968.701 86.0762 968.701 87.3966Z" fill="#EAF0F6"/>
<path d="M948.578 87.3966C948.578 88.717 949.634 89.7733 950.955 89.7733C952.275 89.7733 953.332 88.717 953.332 87.3966C953.332 86.0762 952.275 85.0199 950.955 85.0199C949.634 85.0199 948.578 86.0762 948.578 87.3966Z" fill="#EAF0F6"/>
<path d="M928.403 87.3966C928.403 88.717 929.46 89.7733 930.78 89.7733C932.1 89.7733 933.157 88.717 933.157 87.3966C933.157 86.0762 932.1 85.0199 930.78 85.0199C929.46 85.0199 928.403 86.0762 928.403 87.3966Z" fill="#EAF0F6"/>
<path d="M908.28 87.3966C908.28 88.717 909.337 89.7733 910.657 89.7733C911.977 89.7733 913.034 88.717 913.034 87.3966C913.034 86.0762 911.977 85.0199 910.657 85.0199C909.337 85.0199 908.28 86.0762 908.28 87.3966Z" fill="#EAF0F6"/>
<path d="M888.104 87.3966C888.104 88.717 889.161 89.7733 890.481 89.7733C891.802 89.7733 892.858 88.717 892.858 87.3966C892.858 86.0762 891.802 85.0199 890.481 85.0199C889.161 85.0199 888.104 86.0762 888.104 87.3966Z" fill="#EAF0F6"/>
<path d="M1110.25 22.4333C1110.25 23.7537 1111.3 24.81 1112.62 24.81C1113.94 24.81 1115 23.7537 1115 22.4333C1115 21.113 1113.94 20.0566 1112.62 20.0566C1111.3 20.0566 1110.25 21.113 1110.25 22.4333Z" fill="#EAF0F6"/>
<path d="M1090.12 22.4333C1090.12 23.7537 1091.18 24.81 1092.5 24.81C1093.82 24.81 1094.88 23.7537 1094.88 22.4333C1094.88 21.113 1093.82 20.0566 1092.5 20.0566C1091.18 20.0566 1090.12 21.113 1090.12 22.4333Z" fill="#EAF0F6"/>
<path d="M1072.32 24.81C1073.64 24.81 1074.7 23.746 1074.7 22.4333C1074.7 21.1207 1073.64 20.0566 1072.32 20.0566C1071.01 20.0566 1069.95 21.1207 1069.95 22.4333C1069.95 23.746 1071.01 24.81 1072.32 24.81Z" fill="#EAF0F6"/>
<path d="M1049.83 22.4333C1049.83 23.7537 1050.88 24.81 1052.2 24.81C1053.52 24.81 1054.58 23.7537 1054.58 22.4333C1054.58 21.113 1053.47 20.0566 1052.15 20.0566C1050.83 20.0566 1049.83 21.113 1049.83 22.4333Z" fill="#EAF0F6"/>
<path d="M1032.03 24.81C1033.34 24.81 1034.4 23.746 1034.4 22.4333C1034.4 21.1207 1033.34 20.0566 1032.03 20.0566C1030.71 20.0566 1029.65 21.1207 1029.65 22.4333C1029.65 23.746 1030.71 24.81 1032.03 24.81Z" fill="#EAF0F6"/>
<path d="M1110.25 44.0878C1110.25 45.4081 1111.3 46.4645 1112.62 46.4645C1113.94 46.4645 1115 45.4081 1115 44.0878C1115 42.7674 1113.94 41.7111 1112.62 41.7111C1111.3 41.7111 1110.25 42.7674 1110.25 44.0878Z" fill="#EAF0F6"/>
<path d="M1090.12 44.0878C1090.12 45.4081 1091.18 46.4645 1092.5 46.4645C1093.82 46.4645 1094.88 45.4081 1094.88 44.0878C1094.88 42.7674 1093.82 41.7111 1092.5 41.7111C1091.18 41.7111 1090.12 42.7674 1090.12 44.0878Z" fill="#EAF0F6"/>
<path d="M1072.32 46.4645C1073.64 46.4645 1074.7 45.4004 1074.7 44.0878C1074.7 42.7751 1073.64 41.7111 1072.32 41.7111C1071.01 41.7111 1069.95 42.7751 1069.95 44.0878C1069.95 45.4004 1071.01 46.4645 1072.32 46.4645Z" fill="#EAF0F6"/>
<path d="M1049.83 44.0878C1049.83 45.4081 1050.88 46.4645 1052.2 46.4645C1053.52 46.4645 1054.58 45.4081 1054.58 44.0878C1054.58 42.7674 1053.52 41.7111 1052.2 41.7111C1050.88 41.7111 1049.83 42.7674 1049.83 44.0878Z" fill="#EAF0F6"/>
<path d="M1032.03 46.4645C1033.34 46.4645 1034.4 45.4004 1034.4 44.0878C1034.4 42.7751 1033.34 41.7111 1032.03 41.7111C1030.71 41.7111 1029.65 42.7751 1029.65 44.0878C1029.65 45.4004 1030.71 46.4645 1032.03 46.4645Z" fill="#EAF0F6"/>
<path d="M1110.25 65.7422C1110.25 67.0626 1111.3 68.1189 1112.62 68.1189C1113.94 68.1189 1115 67.0626 1115 65.7422C1115 64.4218 1113.94 63.3655 1112.62 63.3655C1111.3 63.4183 1110.25 64.4746 1110.25 65.7422Z" fill="#EAF0F6"/>
<path d="M1090.12 65.7422C1090.12 67.0626 1091.18 68.1189 1092.5 68.1189C1093.82 68.1189 1094.88 67.0626 1094.88 65.7422C1094.88 64.4218 1093.82 63.3655 1092.5 63.3655C1091.18 63.4183 1090.12 64.4746 1090.12 65.7422Z" fill="#EAF0F6"/>
<path d="M1072.32 68.1189C1073.64 68.1189 1074.7 67.0548 1074.7 65.7422C1074.7 64.4296 1073.64 63.3655 1072.32 63.3655C1071.01 63.3655 1069.95 64.4296 1069.95 65.7422C1069.95 67.0548 1071.01 68.1189 1072.32 68.1189Z" fill="#EAF0F6"/>
<path d="M1049.83 65.7422C1049.83 67.0626 1050.88 68.1189 1052.2 68.1189C1053.52 68.1189 1054.58 67.0626 1054.58 65.7422C1054.58 64.4218 1053.52 63.3655 1052.2 63.3655C1050.88 63.3655 1049.83 64.4746 1049.83 65.7422Z" fill="#EAF0F6"/>
<path d="M1032.03 68.1189C1033.34 68.1189 1034.4 67.0548 1034.4 65.7422C1034.4 64.4296 1033.34 63.3655 1032.03 63.3655C1030.71 63.3655 1029.65 64.4296 1029.65 65.7422C1029.65 67.0548 1030.71 68.1189 1032.03 68.1189Z" fill="#EAF0F6"/>
<path d="M1110.25 87.3966C1110.25 88.717 1111.3 89.7733 1112.62 89.7733C1113.94 89.7733 1115 88.717 1115 87.3966C1115 86.0762 1113.94 85.0199 1112.62 85.0199C1111.3 85.0199 1110.25 86.0762 1110.25 87.3966Z" fill="#EAF0F6"/>
<path d="M1090.12 87.3966C1090.12 88.717 1091.18 89.7733 1092.5 89.7733C1093.82 89.7733 1094.88 88.717 1094.88 87.3966C1094.88 86.0762 1093.82 85.0199 1092.5 85.0199C1091.18 85.0199 1090.12 86.0762 1090.12 87.3966Z" fill="#EAF0F6"/>
<path d="M1069.95 87.3966C1069.95 88.717 1071 89.7733 1072.32 89.7733C1073.65 89.7733 1074.7 88.717 1074.7 87.3966C1074.7 86.0762 1073.65 85.0199 1072.32 85.0199C1071 85.0199 1069.95 86.0762 1069.95 87.3966Z" fill="#EAF0F6"/>
<path d="M1049.83 87.3966C1049.83 88.717 1050.88 89.7733 1052.2 89.7733C1053.52 89.7733 1054.58 88.717 1054.58 87.3966C1054.58 86.0762 1053.52 85.0199 1052.2 85.0199C1050.88 85.0199 1049.83 86.0762 1049.83 87.3966Z" fill="#EAF0F6"/>
<path d="M1029.65 87.3966C1029.65 88.717 1030.71 89.7733 1032.03 89.7733C1033.35 89.7733 1034.4 88.717 1034.4 87.3966C1034.4 86.0762 1033.35 85.0199 1032.03 85.0199C1030.71 85.0199 1029.65 86.0762 1029.65 87.3966Z" fill="#EAF0F6"/>
<path d="M1009 2.3767C1009 3.69709 1010.06 4.7534 1011.38 4.7534C1012.7 4.7534 1013.75 3.69709 1013.75 2.3767C1013.75 1.05631 1012.7 0 1011.38 0C1010.06 0 1009 1.05631 1009 2.3767Z" fill="#EAF0F6"/>
<path d="M988.877 2.3767C988.877 3.69709 989.933 4.7534 991.254 4.7534C992.574 4.7534 993.63 3.69709 993.63 2.3767C993.63 1.05631 992.574 0 991.254 0C989.933 0 988.877 1.05631 988.877 2.3767Z" fill="#EAF0F6"/>
<path d="M968.701 2.3767C968.701 3.69709 969.757 4.7534 971.078 4.7534C972.398 4.7534 973.455 3.69709 973.455 2.3767C973.455 1.05631 972.398 0 971.078 0C969.757 0 968.701 1.05631 968.701 2.3767Z" fill="#EAF0F6"/>
<path d="M948.578 2.3767C948.578 3.69709 949.634 4.7534 950.955 4.7534C952.275 4.7534 953.332 3.69709 953.332 2.3767C953.332 1.05631 952.275 0 950.955 0C949.634 0 948.578 1.05631 948.578 2.3767Z" fill="#EAF0F6"/>
<path d="M928.403 2.3767C928.403 3.69709 929.46 4.7534 930.78 4.7534C932.1 4.7534 933.157 3.69709 933.157 2.3767C933.157 1.05631 932.1 0 930.78 0C929.46 0 928.403 1.05631 928.403 2.3767Z" fill="#EAF0F6"/>
<path d="M908.28 2.3767C908.28 3.69709 909.337 4.7534 910.657 4.7534C911.977 4.7534 913.034 3.69709 913.034 2.3767C913.034 1.05631 911.977 0 910.657 0C909.337 0 908.28 1.05631 908.28 2.3767Z" fill="#EAF0F6"/>
<path d="M888.104 2.3767C888.104 3.69709 889.161 4.7534 890.481 4.7534C891.802 4.7534 892.858 3.69709 892.858 2.3767C892.858 1.05631 891.802 0 890.481 0C889.161 0 888.104 1.05631 888.104 2.3767Z" fill="#EAF0F6"/>
<path d="M1110.25 2.3767C1110.25 3.69709 1111.3 4.7534 1112.62 4.7534C1113.94 4.7534 1115 3.69709 1115 2.3767C1115 1.05631 1113.94 0 1112.62 0C1111.3 0 1110.25 1.05631 1110.25 2.3767Z" fill="#EAF0F6"/>
<path d="M1090.12 2.3767C1090.12 3.69709 1091.18 4.7534 1092.5 4.7534C1093.82 4.7534 1094.88 3.69709 1094.88 2.3767C1094.88 1.05631 1093.82 0 1092.5 0C1091.18 0 1090.12 1.05631 1090.12 2.3767Z" fill="#EAF0F6"/>
<path d="M1069.95 2.3767C1069.95 3.69709 1071 4.7534 1072.32 4.7534C1073.65 4.7534 1074.7 3.69709 1074.7 2.3767C1074.7 1.05631 1073.65 0 1072.32 0C1071 0 1069.95 1.05631 1069.95 2.3767Z" fill="#EAF0F6"/>
<path d="M1049.83 2.3767C1049.83 3.69709 1050.88 4.7534 1052.2 4.7534C1053.52 4.7534 1054.58 3.69709 1054.58 2.3767C1054.58 1.05631 1053.52 0 1052.2 0C1050.88 0 1049.83 1.05631 1049.83 2.3767Z" fill="#EAF0F6"/>
<path d="M160.247 22.4333C160.247 23.7537 161.303 24.81 162.623 24.81C163.944 24.81 165 23.7537 165 22.4333C165 21.113 163.944 20.0566 162.623 20.0566C161.303 20.0566 160.247 21.113 160.247 22.4333Z" fill="#EAF0F6"/>
<path d="M140.124 22.4333C140.124 23.7537 141.18 24.81 142.501 24.81C143.821 24.81 144.877 23.7537 144.877 22.4333C144.877 21.113 143.821 20.0566 142.501 20.0566C141.18 20.0566 140.124 21.113 140.124 22.4333Z" fill="#EAF0F6"/>
<path d="M122.325 24.81C123.638 24.81 124.702 23.746 124.702 22.4333C124.702 21.1207 123.638 20.0566 122.325 20.0566C121.013 20.0566 119.948 21.1207 119.948 22.4333C119.948 23.746 121.013 24.81 122.325 24.81Z" fill="#EAF0F6"/>
<path d="M99.8259 22.4333C99.8259 23.7537 100.882 24.81 102.203 24.81C103.523 24.81 104.579 23.7537 104.579 22.4333C104.579 21.113 103.47 20.0566 102.15 20.0566C100.829 20.0566 99.8259 21.113 99.8259 22.4333Z" fill="#EAF0F6"/>
<path d="M160.247 44.0878C160.247 45.4081 161.303 46.4645 162.623 46.4645C163.944 46.4645 165 45.4081 165 44.0878C165 42.7674 163.944 41.7111 162.623 41.7111C161.303 41.7111 160.247 42.7674 160.247 44.0878Z" fill="#EAF0F6"/>
<path d="M140.124 44.0878C140.124 45.4081 141.18 46.4645 142.501 46.4645C143.821 46.4645 144.877 45.4081 144.877 44.0878C144.877 42.7674 143.821 41.7111 142.501 41.7111C141.18 41.7111 140.124 42.7674 140.124 44.0878Z" fill="#EAF0F6"/>
<path d="M122.325 46.4645C123.638 46.4645 124.702 45.4004 124.702 44.0878C124.702 42.7751 123.638 41.7111 122.325 41.7111C121.013 41.7111 119.948 42.7751 119.948 44.0878C119.948 45.4004 121.013 46.4645 122.325 46.4645Z" fill="#EAF0F6"/>
<path d="M99.8259 44.0878C99.8259 45.4081 100.882 46.4645 102.203 46.4645C103.523 46.4645 104.579 45.4081 104.579 44.0878C104.579 42.7674 103.523 41.7111 102.203 41.7111C100.882 41.7111 99.8259 42.7674 99.8259 44.0878Z" fill="#EAF0F6"/>
<path d="M160.247 65.7422C160.247 67.0626 161.303 68.1189 162.623 68.1189C163.944 68.1189 165 67.0626 165 65.7422C165 64.4218 163.944 63.3655 162.623 63.3655C161.303 63.4183 160.247 64.4746 160.247 65.7422Z" fill="#EAF0F6"/>
<path d="M140.124 65.7422C140.124 67.0626 141.18 68.1189 142.501 68.1189C143.821 68.1189 144.877 67.0626 144.877 65.7422C144.877 64.4218 143.821 63.3655 142.501 63.3655C141.18 63.4183 140.124 64.4746 140.124 65.7422Z" fill="#EAF0F6"/>
<path d="M122.325 68.1189C123.638 68.1189 124.702 67.0548 124.702 65.7422C124.702 64.4296 123.638 63.3655 122.325 63.3655C121.013 63.3655 119.948 64.4296 119.948 65.7422C119.948 67.0548 121.013 68.1189 122.325 68.1189Z" fill="#EAF0F6"/>
<path d="M99.8259 65.7422C99.8259 67.0626 100.882 68.1189 102.203 68.1189C103.523 68.1189 104.579 67.0626 104.579 65.7422C104.579 64.4218 103.523 63.3655 102.203 63.3655C100.882 63.3655 99.8259 64.4746 99.8259 65.7422Z" fill="#EAF0F6"/>
<path d="M160.247 87.3966C160.247 88.717 161.303 89.7733 162.623 89.7733C163.944 89.7733 165 88.717 165 87.3966C165 86.0762 163.944 85.0199 162.623 85.0199C161.303 85.0199 160.247 86.0762 160.247 87.3966Z" fill="#EAF0F6"/>
<path d="M140.124 87.3966C140.124 88.717 141.18 89.7733 142.501 89.7733C143.821 89.7733 144.877 88.717 144.877 87.3966C144.877 86.0762 143.821 85.0199 142.501 85.0199C141.18 85.0199 140.124 86.0762 140.124 87.3966Z" fill="#EAF0F6"/>
<path d="M119.948 87.3966C119.948 88.717 121.005 89.7733 122.325 89.7733C123.646 89.7733 124.702 88.717 124.702 87.3966C124.702 86.0762 123.646 85.0199 122.325 85.0199C121.005 85.0199 119.948 86.0762 119.948 87.3966Z" fill="#EAF0F6"/>
<path d="M99.8259 87.3966C99.8259 88.717 100.882 89.7733 102.203 89.7733C103.523 89.7733 104.579 88.717 104.579 87.3966C104.579 86.0762 103.523 85.0199 102.203 85.0199C100.882 85.0199 99.8259 86.0762 99.8259 87.3966Z" fill="#EAF0F6"/>
<path d="M160.247 2.3767C160.247 3.69709 161.303 4.7534 162.623 4.7534C163.944 4.7534 165 3.69709 165 2.3767C165 1.05631 163.944 0 162.623 0C161.303 0 160.247 1.05631 160.247 2.3767Z" fill="#EAF0F6"/>
<path d="M140.124 2.3767C140.124 3.69709 141.18 4.7534 142.501 4.7534C143.821 4.7534 144.877 3.69709 144.877 2.3767C144.877 1.05631 143.821 0 142.501 0C141.18 0 140.124 1.05631 140.124 2.3767Z" fill="#EAF0F6"/>
<path d="M119.948 2.3767C119.948 3.69709 121.005 4.7534 122.325 4.7534C123.646 4.7534 124.702 3.69709 124.702 2.3767C124.702 1.05631 123.646 0 122.325 0C121.005 0 119.948 1.05631 119.948 2.3767Z" fill="#EAF0F6"/>
<path d="M99.8259 2.3767C99.8259 3.69709 100.882 4.7534 102.203 4.7534C103.523 4.7534 104.579 3.69709 104.579 2.3767C104.579 1.05631 103.523 0 102.203 0C100.882 0 99.8259 1.05631 99.8259 2.3767Z" fill="#EAF0F6"/>
<path d="M80.4207 22.8607C80.4207 24.1811 81.477 25.2374 82.7974 25.2374C84.1177 25.2374 85.1741 24.1811 85.1741 22.8607C85.1741 21.5403 84.1177 20.484 82.7974 20.484C81.477 20.484 80.4207 21.5403 80.4207 22.8607Z" fill="#EAF0F6"/>
<path d="M60.2981 22.8607C60.2981 24.1811 61.3544 25.2374 62.6748 25.2374C63.9952 25.2374 65.0515 24.1811 65.0515 22.8607C65.0515 21.5403 63.9952 20.484 62.6748 20.484C61.3544 20.484 60.2981 21.5403 60.2981 22.8607Z" fill="#EAF0F6"/>
<path d="M42.4993 25.2374C43.8119 25.2374 44.876 24.1733 44.876 22.8607C44.876 21.5481 43.8119 20.484 42.4993 20.484C41.1866 20.484 40.1226 21.5481 40.1226 22.8607C40.1226 24.1733 41.1866 25.2374 42.4993 25.2374Z" fill="#EAF0F6"/>
<path d="M1129.83 22.4333C1129.83 23.7537 1130.88 24.81 1132.2 24.81C1133.52 24.81 1134.58 23.7537 1134.58 22.4333C1134.58 21.113 1133.47 20.0566 1132.15 20.0566C1130.83 20.0566 1129.83 21.113 1129.83 22.4333Z" fill="#EAF0F6"/>
<path d="M80.4207 44.5151C80.4207 45.8355 81.477 46.8918 82.7974 46.8918C84.1177 46.8918 85.1741 45.8355 85.1741 44.5151C85.1741 43.1947 84.1177 42.1384 82.7974 42.1384C81.477 42.1384 80.4207 43.1947 80.4207 44.5151Z" fill="#EAF0F6"/>
<path d="M60.2981 44.5151C60.2981 45.8355 61.3544 46.8918 62.6748 46.8918C63.9952 46.8918 65.0515 45.8355 65.0515 44.5151C65.0515 43.1947 63.9952 42.1384 62.6748 42.1384C61.3544 42.1384 60.2981 43.1947 60.2981 44.5151Z" fill="#EAF0F6"/>
<path d="M1152.32 46.4645C1153.64 46.4645 1154.7 45.4004 1154.7 44.0878C1154.7 42.7751 1153.64 41.7111 1152.32 41.7111C1151.01 41.7111 1149.95 42.7751 1149.95 44.0878C1149.95 45.4004 1151.01 46.4645 1152.32 46.4645Z" fill="#EAF0F6"/>
<path d="M1129.83 44.0878C1129.83 45.4081 1130.88 46.4645 1132.2 46.4645C1133.52 46.4645 1134.58 45.4081 1134.58 44.0878C1134.58 42.7674 1133.52 41.7111 1132.2 41.7111C1130.88 41.7111 1129.83 42.7674 1129.83 44.0878Z" fill="#EAF0F6"/>
<path d="M80.4207 66.1695C80.4207 67.4899 81.477 68.5462 82.7974 68.5462C84.1177 68.5462 85.1741 67.4899 85.1741 66.1695C85.1741 64.8492 84.1177 63.7928 82.7974 63.7928C81.477 63.8457 80.4207 64.902 80.4207 66.1695Z" fill="#EAF0F6"/>
<path d="M1170.12 65.7422C1170.12 67.0626 1171.18 68.1189 1172.5 68.1189C1173.82 68.1189 1174.88 67.0626 1174.88 65.7422C1174.88 64.4218 1173.82 63.3655 1172.5 63.3655C1171.18 63.4183 1170.12 64.4746 1170.12 65.7422Z" fill="#EAF0F6"/>
<path d="M1152.32 68.1189C1153.64 68.1189 1154.7 67.0548 1154.7 65.7422C1154.7 64.4296 1153.64 63.3655 1152.32 63.3655C1151.01 63.3655 1149.95 64.4296 1149.95 65.7422C1149.95 67.0548 1151.01 68.1189 1152.32 68.1189Z" fill="#EAF0F6"/>
<path d="M1129.83 65.7422C1129.83 67.0626 1130.88 68.1189 1132.2 68.1189C1133.52 68.1189 1134.58 67.0626 1134.58 65.7422C1134.58 64.4218 1133.52 63.3655 1132.2 63.3655C1130.88 63.3655 1129.83 64.4746 1129.83 65.7422Z" fill="#EAF0F6"/>
<path d="M1190.25 87.3966C1190.25 88.717 1191.3 89.7733 1192.62 89.7733C1193.94 89.7733 1195 88.717 1195 87.3966C1195 86.0762 1193.94 85.0199 1192.62 85.0199C1191.3 85.0199 1190.25 86.0762 1190.25 87.3966Z" fill="#EAF0F6"/>
<path d="M1170.12 87.3966C1170.12 88.717 1171.18 89.7733 1172.5 89.7733C1173.82 89.7733 1174.88 88.717 1174.88 87.3966C1174.88 86.0762 1173.82 85.0199 1172.5 85.0199C1171.18 85.0199 1170.12 86.0762 1170.12 87.3966Z" fill="#EAF0F6"/>
<path d="M1149.95 87.3966C1149.95 88.717 1151 89.7733 1152.32 89.7733C1153.65 89.7733 1154.7 88.717 1154.7 87.3966C1154.7 86.0762 1153.65 85.0199 1152.32 85.0199C1151 85.0199 1149.95 86.0762 1149.95 87.3966Z" fill="#EAF0F6"/>
<path d="M1129.83 87.3966C1129.83 88.717 1130.88 89.7733 1132.2 89.7733C1133.52 89.7733 1134.58 88.717 1134.58 87.3966C1134.58 86.0762 1133.52 85.0199 1132.2 85.0199C1130.88 85.0199 1129.83 86.0762 1129.83 87.3966Z" fill="#EAF0F6"/>
<path d="M80.4207 2.80407C80.4207 4.12446 81.477 5.18077 82.7974 5.18077C84.1177 5.18077 85.1741 4.12446 85.1741 2.80407C85.1741 1.48368 84.1177 0.427368 82.7974 0.427368C81.477 0.427368 80.4207 1.48368 80.4207 2.80407Z" fill="#EAF0F6"/>
<path d="M60.2981 2.80407C60.2981 4.12446 61.3544 5.18077 62.6748 5.18077C63.9952 5.18077 65.0515 4.12446 65.0515 2.80407C65.0515 1.48368 63.9952 0.427368 62.6748 0.427368C61.3544 0.427368 60.2981 1.48368 60.2981 2.80407Z" fill="#EAF0F6"/>
<path d="M40.1226 2.80407C40.1226 4.12446 41.1789 5.18077 42.4993 5.18077C43.8196 5.18077 44.876 4.12446 44.876 2.80407C44.876 1.48368 43.8196 0.427368 42.4993 0.427368C41.1789 0.427368 40.1226 1.48368 40.1226 2.80407Z" fill="#EAF0F6"/>
<path d="M20 2.80407C20 4.12446 21.0563 5.18077 22.3767 5.18077C23.6971 5.18077 24.7534 4.12446 24.7534 2.80407C24.7534 1.48368 23.6971 0.427368 22.3767 0.427368C21.0563 0.427368 20 1.48368 20 2.80407Z" fill="#EAF0F6"/>
<path d="M79 87.8041C79 89.1245 80.0563 90.1808 81.3767 90.1808C82.6971 90.1808 83.7534 89.1245 83.7534 87.8041C83.7534 86.4837 82.6971 85.4274 81.3767 85.4274C80.0563 85.4274 79 86.4837 79 87.8041Z" fill="#EAF0F6"/>
<path d="M22.3767 25.1808C23.6893 25.1808 24.7534 24.1167 24.7534 22.8041C24.7534 21.4915 23.6893 20.4274 22.3767 20.4274C21.0641 20.4274 20 21.4915 20 22.8041C20 24.1167 21.0641 25.1808 22.3767 25.1808Z" fill="#EAF0F6"/>
<path d="M41 44.8041C41 46.1245 42.0563 47.1808 43.3767 47.1808C44.6971 47.1808 45.7534 46.1245 45.7534 44.8041C45.7534 43.4837 44.6971 42.4274 43.3767 42.4274C42.0563 42.4274 41 43.4837 41 44.8041Z" fill="#EAF0F6"/>
<path d="M61 65.8041C61 67.1245 62.0563 68.1808 63.3767 68.1808C64.6971 68.1808 65.7534 67.1245 65.7534 65.8041C65.7534 64.4837 64.6971 63.4274 63.3767 63.4274C62.0563 63.4802 61 64.5365 61 65.8041Z" fill="#EAF0F6"/>
<path d="M0 2.80407C0 4.12446 1.05631 5.18077 2.3767 5.18077C3.69709 5.18077 4.7534 4.12446 4.7534 2.80407C4.7534 1.48368 3.69709 0.427368 2.3767 0.427368C1.05631 0.427368 0 1.48368 0 2.80407Z" fill="#EAF0F6"/>
<path d="M1210.75 22.8607C1210.75 24.1811 1209.7 25.2374 1208.38 25.2374C1207.06 25.2374 1206 24.1811 1206 22.8607C1206 21.5403 1207.06 20.484 1208.38 20.484C1209.7 20.484 1210.75 21.5403 1210.75 22.8607Z" fill="#EAF0F6"/>
<path d="M1230.88 22.8607C1230.88 24.1811 1229.82 25.2374 1228.5 25.2374C1227.18 25.2374 1226.12 24.1811 1226.12 22.8607C1226.12 21.5403 1227.18 20.484 1228.5 20.484C1229.82 20.484 1230.88 21.5403 1230.88 22.8607Z" fill="#EAF0F6"/>
<path d="M1248.68 25.2374C1247.36 25.2374 1246.3 24.1733 1246.3 22.8607C1246.3 21.5481 1247.36 20.484 1248.68 20.484C1249.99 20.484 1251.05 21.5481 1251.05 22.8607C1251.05 24.1733 1249.99 25.2374 1248.68 25.2374Z" fill="#EAF0F6"/>
<path d="M1210.75 44.5151C1210.75 45.8355 1209.7 46.8918 1208.38 46.8918C1207.06 46.8918 1206 45.8355 1206 44.5151C1206 43.1947 1207.06 42.1384 1208.38 42.1384C1209.7 42.1384 1210.75 43.1947 1210.75 44.5151Z" fill="#EAF0F6"/>
<path d="M1230.88 44.5151C1230.88 45.8355 1229.82 46.8918 1228.5 46.8918C1227.18 46.8918 1226.12 45.8355 1226.12 44.5151C1226.12 43.1947 1227.18 42.1384 1228.5 42.1384C1229.82 42.1384 1230.88 43.1947 1230.88 44.5151Z" fill="#EAF0F6"/>
<path d="M1210.75 66.1695C1210.75 67.4899 1209.7 68.5462 1208.38 68.5462C1207.06 68.5462 1206 67.4899 1206 66.1695C1206 64.8492 1207.06 63.7928 1208.38 63.7928C1209.7 63.8457 1210.75 64.902 1210.75 66.1695Z" fill="#EAF0F6"/>
<path d="M1210.75 2.80407C1210.75 4.12446 1209.7 5.18077 1208.38 5.18077C1207.06 5.18077 1206 4.12446 1206 2.80407C1206 1.48368 1207.06 0.427368 1208.38 0.427368C1209.7 0.427368 1210.75 1.48368 1210.75 2.80407Z" fill="#EAF0F6"/>
<path d="M1230.88 2.80407C1230.88 4.12446 1229.82 5.18077 1228.5 5.18077C1227.18 5.18077 1226.12 4.12446 1226.12 2.80407C1226.12 1.48368 1227.18 0.427368 1228.5 0.427368C1229.82 0.427368 1230.88 1.48368 1230.88 2.80407Z" fill="#EAF0F6"/>
<path d="M1251.05 2.80407C1251.05 4.12446 1250 5.18077 1248.68 5.18077C1247.35 5.18077 1246.3 4.12446 1246.3 2.80407C1246.3 1.48368 1247.35 0.427368 1248.68 0.427368C1250 0.427368 1251.05 1.48368 1251.05 2.80407Z" fill="#EAF0F6"/>
<path d="M1271.17 2.80407C1271.17 4.12446 1270.12 5.18077 1268.8 5.18077C1267.48 5.18077 1266.42 4.12446 1266.42 2.80407C1266.42 1.48368 1267.48 0.427368 1268.8 0.427368C1270.12 0.427368 1271.17 1.48368 1271.17 2.80407Z" fill="#EAF0F6"/>
<path d="M1210 88.8041C1210 90.1245 1211.06 91.1808 1212.38 91.1808C1213.7 91.1808 1214.75 90.1245 1214.75 88.8041C1214.75 87.4837 1213.7 86.4274 1212.38 86.4274C1211.06 86.4274 1210 87.4837 1210 88.8041Z" fill="#EAF0F6"/>
<path d="M1268.38 25.1808C1267.06 25.1808 1266 24.1167 1266 22.8041C1266 21.4915 1267.06 20.4274 1268.38 20.4274C1269.69 20.4274 1270.75 21.4915 1270.75 22.8041C1270.75 24.1167 1269.69 25.1808 1268.38 25.1808Z" fill="#EAF0F6"/>
<path d="M1250.75 44.8041C1250.75 46.1245 1249.7 47.1808 1248.38 47.1808C1247.06 47.1808 1246 46.1245 1246 44.8041C1246 43.4837 1247.06 42.4274 1248.38 42.4274C1249.7 42.4274 1250.75 43.4837 1250.75 44.8041Z" fill="#EAF0F6"/>
<path d="M1230.75 66.8041C1230.75 68.1245 1229.7 69.1808 1228.38 69.1808C1227.06 69.1808 1226 68.1245 1226 66.8041C1226 65.4837 1227.06 64.4274 1228.38 64.4274C1229.7 64.4802 1230.75 65.5365 1230.75 66.8041Z" fill="#EAF0F6"/>
<path d="M1291.75 2.80407C1291.75 4.12446 1290.7 5.18077 1289.38 5.18077C1288.06 5.18077 1287 4.12446 1287 2.80407C1287 1.48368 1288.06 0.427368 1289.38 0.427368C1290.7 0.427368 1291.75 1.48368 1291.75 2.80407Z" fill="#EAF0F6"/>
<path d="M1188.42 22.8607C1188.42 24.1811 1189.48 25.2374 1190.8 25.2374C1192.12 25.2374 1193.17 24.1811 1193.17 22.8607C1193.17 21.5403 1192.12 20.484 1190.8 20.484C1189.48 20.484 1188.42 21.5403 1188.42 22.8607Z" fill="#EAF0F6"/>
<path d="M1168.3 22.8607C1168.3 24.1811 1169.35 25.2374 1170.67 25.2374C1171.99 25.2374 1173.05 24.1811 1173.05 22.8607C1173.05 21.5403 1171.99 20.484 1170.67 20.484C1169.35 20.484 1168.3 21.5403 1168.3 22.8607Z" fill="#EAF0F6"/>
<path d="M1150.5 25.2374C1151.81 25.2374 1152.88 24.1733 1152.88 22.8607C1152.88 21.5481 1151.81 20.484 1150.5 20.484C1149.19 20.484 1148.12 21.5481 1148.12 22.8607C1148.12 24.1733 1149.19 25.2374 1150.5 25.2374Z" fill="#EAF0F6"/>
<path d="M1188.42 44.5151C1188.42 45.8355 1189.48 46.8918 1190.8 46.8918C1192.12 46.8918 1193.17 45.8355 1193.17 44.5151C1193.17 43.1947 1192.12 42.1384 1190.8 42.1384C1189.48 42.1384 1188.42 43.1947 1188.42 44.5151Z" fill="#EAF0F6"/>
<path d="M1168.3 44.5151C1168.3 45.8355 1169.35 46.8918 1170.67 46.8918C1171.99 46.8918 1173.05 45.8355 1173.05 44.5151C1173.05 43.1947 1171.99 42.1384 1170.67 42.1384C1169.35 42.1384 1168.3 43.1947 1168.3 44.5151Z" fill="#EAF0F6"/>
<path d="M1188.42 66.1695C1188.42 67.4899 1189.48 68.5462 1190.8 68.5462C1192.12 68.5462 1193.17 67.4899 1193.17 66.1695C1193.17 64.8492 1192.12 63.7928 1190.8 63.7928C1189.48 63.8457 1188.42 64.902 1188.42 66.1695Z" fill="#EAF0F6"/>
<path d="M1188.42 2.80407C1188.42 4.12446 1189.48 5.18077 1190.8 5.18077C1192.12 5.18077 1193.17 4.12446 1193.17 2.80407C1193.17 1.48368 1192.12 0.427368 1190.8 0.427368C1189.48 0.427368 1188.42 1.48368 1188.42 2.80407Z" fill="#EAF0F6"/>
<path d="M1168.3 2.80407C1168.3 4.12446 1169.35 5.18077 1170.67 5.18077C1171.99 5.18077 1173.05 4.12446 1173.05 2.80407C1173.05 1.48368 1171.99 0.427368 1170.67 0.427368C1169.35 0.427368 1168.3 1.48368 1168.3 2.80407Z" fill="#EAF0F6"/>
<path d="M1148.12 2.80407C1148.12 4.12446 1149.18 5.18077 1150.5 5.18077C1151.82 5.18077 1152.88 4.12446 1152.88 2.80407C1152.88 1.48368 1151.82 0.427368 1150.5 0.427368C1149.18 0.427368 1148.12 1.48368 1148.12 2.80407Z" fill="#EAF0F6"/>
<path d="M1128 2.80407C1128 4.12446 1129.06 5.18077 1130.38 5.18077C1131.7 5.18077 1132.75 4.12446 1132.75 2.80407C1132.75 1.48368 1131.7 0.427368 1130.38 0.427368C1129.06 0.427368 1128 1.48368 1128 2.80407Z" fill="#EAF0F6"/>
<path d="M1029.65 2.3767C1029.65 3.69709 1030.71 4.7534 1032.03 4.7534C1033.35 4.7534 1034.4 3.69709 1034.4 2.3767C1034.4 1.05631 1033.35 0 1032.03 0C1030.71 0 1029.65 1.05631 1029.65 2.3767Z" fill="#EAF0F6"/>
</svg>
