<svg width="192" height="35" viewBox="0 0 192 35" fill="none" xmlns="http://www.w3.org/2000/svg">
<path d="M17.3764 0L21.2776 12.0068H33.9022L23.6887 19.4274L27.5899 31.4341L17.3764 24.0135L7.16279 31.4341L11.064 19.4274L0.85046 12.0068H13.4751L17.3764 0Z" fill="#F5C26B"/>
<path d="M56.4729 6.10352e-05L60.3741 12.0068H72.9988L62.7852 19.4274L66.6865 31.4342L56.4729 24.0136L46.2593 31.4342L50.1606 19.4274L39.947 12.0068H52.5717L56.4729 6.10352e-05Z" fill="#F5C26B"/>
<path d="M95.5695 6.10352e-05L99.4707 12.0068H112.095L101.882 19.4274L105.783 31.4342L95.5695 24.0136L85.3559 31.4342L89.2571 19.4274L79.0436 12.0068H91.6682L95.5695 6.10352e-05Z" fill="#F5C26B"/>
<path d="M134.667 6.10352e-05L138.568 12.0068H151.193L140.979 19.4274L144.88 31.4342L134.667 24.0136L124.453 31.4342L128.354 19.4274L118.141 12.0068H130.766L134.667 6.10352e-05Z" fill="#F5C26B"/>
<path d="M173.764 6.10352e-05L177.665 12.0068H190.289L180.076 19.4274L183.977 31.4342L173.764 24.0136L163.55 31.4342L167.451 19.4274L157.238 12.0068H169.862L173.764 6.10352e-05Z" fill="#F5C26B"/>
</svg>
